999
"DXF R12 Output" (www.mydxf.blogspot.com)
 0 
SECTION
 2 
HEADER
 9 
$ACADVER
 1 
AC1009
 9 
$EXTMIN
 10 
 0 
 20 
 0 
 9 
$EXTMAX
 10 
 8.5 
 20 
 11 
 0 
ENDSEC
 0 
SECTION
 2 
ENTITIES
0
LINE
8
Layer 1
10
264.100000
20
5.616000
11
264.088000
21
5.440000
0
LINE
8
Layer 1
10
264.088000
20
5.440000
11
264.082000
21
5.348010
0
LINE
8
Layer 1
10
264.082000
20
5.348010
11
264.026000
21
5.082000
0
LINE
8
Layer 1
10
264.026000
20
5.082000
11
263.972000
21
4.927990
0
LINE
8
Layer 1
10
263.972000
20
4.927990
11
263.934000
21
4.819000
0
LINE
8
Layer 1
10
263.934000
20
4.819000
11
263.806000
21
4.561000
0
LINE
8
Layer 1
10
263.806000
20
4.561000
11
263.712000
21
4.416000
0
LINE
8
Layer 1
10
263.712000
20
4.416000
11
263.680000
21
4.366200
0
LINE
8
Layer 1
10
263.680000
20
4.366200
11
263.643000
21
4.309010
0
LINE
8
Layer 1
10
263.643000
20
4.309010
11
263.446000
21
4.065990
0
LINE
8
Layer 1
10
263.446000
20
4.065990
11
263.287000
21
3.904010
0
LINE
8
Layer 1
10
263.287000
20
3.904010
11
263.216000
21
3.832000
0
LINE
8
Layer 1
10
263.216000
20
3.832000
11
263.168000
21
3.791140
0
LINE
8
Layer 1
10
263.168000
20
3.791140
11
262.954000
21
3.608990
0
LINE
8
Layer 1
10
262.954000
20
3.608990
11
262.663000
21
3.399000
0
LINE
8
Layer 1
10
262.663000
20
3.399000
11
262.656000
21
3.394680
0
LINE
8
Layer 1
10
262.656000
20
3.394680
11
262.652000
21
3.392000
0
LINE
8
Layer 1
10
262.652000
20
3.392000
11
262.343000
21
3.202000
0
LINE
8
Layer 1
10
262.343000
20
3.202000
11
262.144000
21
3.097320
0
LINE
8
Layer 1
10
262.144000
20
3.097320
11
261.997000
21
3.020000
0
LINE
8
Layer 1
10
261.997000
20
3.020000
11
261.685000
21
2.880000
0
LINE
8
Layer 1
10
261.685000
20
2.880000
11
261.627000
21
2.854000
0
LINE
8
Layer 1
10
261.627000
20
2.854000
11
261.236000
21
2.705000
0
LINE
8
Layer 1
10
261.236000
20
2.705000
11
261.120000
21
2.668030
0
LINE
8
Layer 1
10
261.120000
20
2.668030
11
260.825000
21
2.574010
0
LINE
8
Layer 1
10
260.825000
20
2.574010
11
260.608000
21
2.517210
0
LINE
8
Layer 1
10
260.608000
20
2.517210
11
260.397000
21
2.462010
0
LINE
8
Layer 1
10
260.397000
20
2.462010
11
260.096000
21
2.398670
0
LINE
8
Layer 1
10
260.096000
20
2.398670
11
259.955000
21
2.369000
0
LINE
8
Layer 1
10
259.955000
20
2.369000
11
259.949000
21
2.368000
0
LINE
8
Layer 1
10
259.949000
20
2.368000
11
259.502000
21
2.296010
0
LINE
8
Layer 1
10
259.502000
20
2.296010
11
259.072000
21
2.247600
0
LINE
8
Layer 1
10
259.072000
20
2.247600
11
259.040000
21
2.244000
0
LINE
8
Layer 1
10
259.040000
20
2.244000
11
258.572000
21
2.212010
0
LINE
8
Layer 1
10
258.572000
20
2.212010
11
258.560000
21
2.211750
0
LINE
8
Layer 1
10
258.560000
20
2.211750
11
258.102000
21
2.202000
0
LINE
8
Layer 1
10
258.102000
20
2.202000
11
258.048000
21
2.202000
0
LINE
8
Layer 1
10
258.048000
20
2.202000
11
257.024000
21
2.202000
0
LINE
8
Layer 1
10
257.024000
20
2.202000
11
256.000000
21
2.202000
0
LINE
8
Layer 1
10
256.000000
20
2.202000
11
254.976000
21
2.202000
0
LINE
8
Layer 1
10
254.976000
20
2.202000
11
253.952000
21
2.202000
0
LINE
8
Layer 1
10
253.952000
20
2.202000
11
252.928000
21
2.202000
0
LINE
8
Layer 1
10
252.928000
20
2.202000
11
251.904000
21
2.202000
0
LINE
8
Layer 1
10
251.904000
20
2.202000
11
250.880000
21
2.202000
0
LINE
8
Layer 1
10
250.880000
20
2.202000
11
249.856000
21
2.202000
0
LINE
8
Layer 1
10
249.856000
20
2.202000
11
248.832000
21
2.202000
0
LINE
8
Layer 1
10
248.832000
20
2.202000
11
247.808000
21
2.202000
0
LINE
8
Layer 1
10
247.808000
20
2.202000
11
246.784000
21
2.202000
0
LINE
8
Layer 1
10
246.784000
20
2.202000
11
245.760000
21
2.202000
0
LINE
8
Layer 1
10
245.760000
20
2.202000
11
244.736000
21
2.202000
0
LINE
8
Layer 1
10
244.736000
20
2.202000
11
243.712000
21
2.202000
0
LINE
8
Layer 1
10
243.712000
20
2.202000
11
242.688000
21
2.202000
0
LINE
8
Layer 1
10
242.688000
20
2.202000
11
241.664000
21
2.202000
0
LINE
8
Layer 1
10
241.664000
20
2.202000
11
240.640000
21
2.202000
0
LINE
8
Layer 1
10
240.640000
20
2.202000
11
239.616000
21
2.202000
0
LINE
8
Layer 1
10
239.616000
20
2.202000
11
238.592000
21
2.202000
0
LINE
8
Layer 1
10
238.592000
20
2.202000
11
237.568000
21
2.202000
0
LINE
8
Layer 1
10
237.568000
20
2.202000
11
236.544000
21
2.202000
0
LINE
8
Layer 1
10
236.544000
20
2.202000
11
235.520000
21
2.202000
0
LINE
8
Layer 1
10
235.520000
20
2.202000
11
234.496000
21
2.202000
0
LINE
8
Layer 1
10
234.496000
20
2.202000
11
233.472000
21
2.202000
0
LINE
8
Layer 1
10
233.472000
20
2.202000
11
232.448000
21
2.202000
0
LINE
8
Layer 1
10
232.448000
20
2.202000
11
231.424000
21
2.202000
0
LINE
8
Layer 1
10
231.424000
20
2.202000
11
230.400000
21
2.202000
0
LINE
8
Layer 1
10
230.400000
20
2.202000
11
229.376000
21
2.202000
0
LINE
8
Layer 1
10
229.376000
20
2.202000
11
228.352000
21
2.202000
0
LINE
8
Layer 1
10
228.352000
20
2.202000
11
227.328000
21
2.202000
0
LINE
8
Layer 1
10
227.328000
20
2.202000
11
226.304000
21
2.202000
0
LINE
8
Layer 1
10
226.304000
20
2.202000
11
225.280000
21
2.202000
0
LINE
8
Layer 1
10
225.280000
20
2.202000
11
224.256000
21
2.202000
0
LINE
8
Layer 1
10
224.256000
20
2.202000
11
223.232000
21
2.202000
0
LINE
8
Layer 1
10
223.232000
20
2.202000
11
222.208000
21
2.202000
0
LINE
8
Layer 1
10
222.208000
20
2.202000
11
221.184000
21
2.202000
0
LINE
8
Layer 1
10
221.184000
20
2.202000
11
220.160000
21
2.202000
0
LINE
8
Layer 1
10
220.160000
20
2.202000
11
219.136000
21
2.202000
0
LINE
8
Layer 1
10
219.136000
20
2.202000
11
218.112000
21
2.202000
0
LINE
8
Layer 1
10
218.112000
20
2.202000
11
217.088000
21
2.202000
0
LINE
8
Layer 1
10
217.088000
20
2.202000
11
216.064000
21
2.202000
0
LINE
8
Layer 1
10
216.064000
20
2.202000
11
215.040000
21
2.202000
0
LINE
8
Layer 1
10
215.040000
20
2.202000
11
214.016000
21
2.202000
0
LINE
8
Layer 1
10
214.016000
20
2.202000
11
212.992000
21
2.202000
0
LINE
8
Layer 1
10
212.992000
20
2.202000
11
211.968000
21
2.202000
0
LINE
8
Layer 1
10
211.968000
20
2.202000
11
210.944000
21
2.202000
0
LINE
8
Layer 1
10
210.944000
20
2.202000
11
209.920000
21
2.202000
0
LINE
8
Layer 1
10
209.920000
20
2.202000
11
208.896000
21
2.202000
0
LINE
8
Layer 1
10
208.896000
20
2.202000
11
207.872000
21
2.202000
0
LINE
8
Layer 1
10
207.872000
20
2.202000
11
206.848000
21
2.202000
0
LINE
8
Layer 1
10
206.848000
20
2.202000
11
205.824000
21
2.202000
0
LINE
8
Layer 1
10
205.824000
20
2.202000
11
204.800000
21
2.202000
0
LINE
8
Layer 1
10
204.800000
20
2.202000
11
203.776000
21
2.202000
0
LINE
8
Layer 1
10
203.776000
20
2.202000
11
202.752000
21
2.202000
0
LINE
8
Layer 1
10
202.752000
20
2.202000
11
201.728000
21
2.202000
0
LINE
8
Layer 1
10
201.728000
20
2.202000
11
200.704000
21
2.202000
0
LINE
8
Layer 1
10
200.704000
20
2.202000
11
199.680000
21
2.202000
0
LINE
8
Layer 1
10
199.680000
20
2.202000
11
198.656000
21
2.202000
0
LINE
8
Layer 1
10
198.656000
20
2.202000
11
197.632000
21
2.202000
0
LINE
8
Layer 1
10
197.632000
20
2.202000
11
196.608000
21
2.202000
0
LINE
8
Layer 1
10
196.608000
20
2.202000
11
195.584000
21
2.202000
0
LINE
8
Layer 1
10
195.584000
20
2.202000
11
194.560000
21
2.202000
0
LINE
8
Layer 1
10
194.560000
20
2.202000
11
193.536000
21
2.202000
0
LINE
8
Layer 1
10
193.536000
20
2.202000
11
192.512000
21
2.202000
0
LINE
8
Layer 1
10
192.512000
20
2.202000
11
191.488000
21
2.202000
0
LINE
8
Layer 1
10
191.488000
20
2.202000
11
190.464000
21
2.202000
0
LINE
8
Layer 1
10
190.464000
20
2.202000
11
189.440000
21
2.202000
0
LINE
8
Layer 1
10
189.440000
20
2.202000
11
188.416000
21
2.202000
0
LINE
8
Layer 1
10
188.416000
20
2.202000
11
187.392000
21
2.202000
0
LINE
8
Layer 1
10
187.392000
20
2.202000
11
186.368000
21
2.202000
0
LINE
8
Layer 1
10
186.368000
20
2.202000
11
185.344000
21
2.202000
0
LINE
8
Layer 1
10
185.344000
20
2.202000
11
184.320000
21
2.202000
0
LINE
8
Layer 1
10
184.320000
20
2.202000
11
183.296000
21
2.202000
0
LINE
8
Layer 1
10
183.296000
20
2.202000
11
182.272000
21
2.202000
0
LINE
8
Layer 1
10
182.272000
20
2.202000
11
181.248000
21
2.202000
0
LINE
8
Layer 1
10
181.248000
20
2.202000
11
180.224000
21
2.202000
0
LINE
8
Layer 1
10
180.224000
20
2.202000
11
179.200000
21
2.202000
0
LINE
8
Layer 1
10
179.200000
20
2.202000
11
178.176000
21
2.202000
0
LINE
8
Layer 1
10
178.176000
20
2.202000
11
177.152000
21
2.202000
0
LINE
8
Layer 1
10
177.152000
20
2.202000
11
176.128000
21
2.202000
0
LINE
8
Layer 1
10
176.128000
20
2.202000
11
175.104000
21
2.202000
0
LINE
8
Layer 1
10
175.104000
20
2.202000
11
174.080000
21
2.202000
0
LINE
8
Layer 1
10
174.080000
20
2.202000
11
173.056000
21
2.202000
0
LINE
8
Layer 1
10
173.056000
20
2.202000
11
172.032000
21
2.202000
0
LINE
8
Layer 1
10
172.032000
20
2.202000
11
171.008000
21
2.202000
0
LINE
8
Layer 1
10
171.008000
20
2.202000
11
169.984000
21
2.202000
0
LINE
8
Layer 1
10
169.984000
20
2.202000
11
168.960000
21
2.202000
0
LINE
8
Layer 1
10
168.960000
20
2.202000
11
167.936000
21
2.202000
0
LINE
8
Layer 1
10
167.936000
20
2.202000
11
166.912000
21
2.202000
0
LINE
8
Layer 1
10
166.912000
20
2.202000
11
165.888000
21
2.202000
0
LINE
8
Layer 1
10
165.888000
20
2.202000
11
164.864000
21
2.202000
0
LINE
8
Layer 1
10
164.864000
20
2.202000
11
163.840000
21
2.202000
0
LINE
8
Layer 1
10
163.840000
20
2.202000
11
162.816000
21
2.202000
0
LINE
8
Layer 1
10
162.816000
20
2.202000
11
161.792000
21
2.202000
0
LINE
8
Layer 1
10
161.792000
20
2.202000
11
160.768000
21
2.202000
0
LINE
8
Layer 1
10
160.768000
20
2.202000
11
159.744000
21
2.202000
0
LINE
8
Layer 1
10
159.744000
20
2.202000
11
158.720000
21
2.202000
0
LINE
8
Layer 1
10
158.720000
20
2.202000
11
157.696000
21
2.202000
0
LINE
8
Layer 1
10
157.696000
20
2.202000
11
156.672000
21
2.202000
0
LINE
8
Layer 1
10
156.672000
20
2.202000
11
155.648000
21
2.202000
0
LINE
8
Layer 1
10
155.648000
20
2.202000
11
154.624000
21
2.202000
0
LINE
8
Layer 1
10
154.624000
20
2.202000
11
153.600000
21
2.202000
0
LINE
8
Layer 1
10
153.600000
20
2.202000
11
152.576000
21
2.202000
0
LINE
8
Layer 1
10
152.576000
20
2.202000
11
151.552000
21
2.202000
0
LINE
8
Layer 1
10
151.552000
20
2.202000
11
150.528000
21
2.202000
0
LINE
8
Layer 1
10
150.528000
20
2.202000
11
149.504000
21
2.202000
0
LINE
8
Layer 1
10
149.504000
20
2.202000
11
148.480000
21
2.202000
0
LINE
8
Layer 1
10
148.480000
20
2.202000
11
147.456000
21
2.202000
0
LINE
8
Layer 1
10
147.456000
20
2.202000
11
146.432000
21
2.202000
0
LINE
8
Layer 1
10
146.432000
20
2.202000
11
145.408000
21
2.202000
0
LINE
8
Layer 1
10
145.408000
20
2.202000
11
144.384000
21
2.202000
0
LINE
8
Layer 1
10
144.384000
20
2.202000
11
143.360000
21
2.202000
0
LINE
8
Layer 1
10
143.360000
20
2.202000
11
142.336000
21
2.202000
0
LINE
8
Layer 1
10
142.336000
20
2.202000
11
141.312000
21
2.202000
0
LINE
8
Layer 1
10
141.312000
20
2.202000
11
140.288000
21
2.202000
0
LINE
8
Layer 1
10
140.288000
20
2.202000
11
139.264000
21
2.202000
0
LINE
8
Layer 1
10
139.264000
20
2.202000
11
138.240000
21
2.202000
0
LINE
8
Layer 1
10
138.240000
20
2.202000
11
137.216000
21
2.202000
0
LINE
8
Layer 1
10
137.216000
20
2.202000
11
136.192000
21
2.202000
0
LINE
8
Layer 1
10
136.192000
20
2.202000
11
135.168000
21
2.202000
0
LINE
8
Layer 1
10
135.168000
20
2.202000
11
134.144000
21
2.202000
0
LINE
8
Layer 1
10
134.144000
20
2.202000
11
133.120000
21
2.202000
0
LINE
8
Layer 1
10
133.120000
20
2.202000
11
132.096000
21
2.202000
0
LINE
8
Layer 1
10
132.096000
20
2.202000
11
131.072000
21
2.202000
0
LINE
8
Layer 1
10
131.072000
20
2.202000
11
130.048000
21
2.202000
0
LINE
8
Layer 1
10
130.048000
20
2.202000
11
129.024000
21
2.202000
0
LINE
8
Layer 1
10
129.024000
20
2.202000
11
128.000000
21
2.202000
0
LINE
8
Layer 1
10
128.000000
20
2.202000
11
126.976000
21
2.202000
0
LINE
8
Layer 1
10
126.976000
20
2.202000
11
125.952000
21
2.202000
0
LINE
8
Layer 1
10
125.952000
20
2.202000
11
124.928000
21
2.202000
0
LINE
8
Layer 1
10
124.928000
20
2.202000
11
123.904000
21
2.202000
0
LINE
8
Layer 1
10
123.904000
20
2.202000
11
122.880000
21
2.202000
0
LINE
8
Layer 1
10
122.880000
20
2.202000
11
121.856000
21
2.202000
0
LINE
8
Layer 1
10
121.856000
20
2.202000
11
120.832000
21
2.202000
0
LINE
8
Layer 1
10
120.832000
20
2.202000
11
119.808000
21
2.202000
0
LINE
8
Layer 1
10
119.808000
20
2.202000
11
118.784000
21
2.202000
0
LINE
8
Layer 1
10
118.784000
20
2.202000
11
117.760000
21
2.202000
0
LINE
8
Layer 1
10
117.760000
20
2.202000
11
116.736000
21
2.202000
0
LINE
8
Layer 1
10
116.736000
20
2.202000
11
115.712000
21
2.202000
0
LINE
8
Layer 1
10
115.712000
20
2.202000
11
114.688000
21
2.202000
0
LINE
8
Layer 1
10
114.688000
20
2.202000
11
113.664000
21
2.202000
0
LINE
8
Layer 1
10
113.664000
20
2.202000
11
112.640000
21
2.202000
0
LINE
8
Layer 1
10
112.640000
20
2.202000
11
111.616000
21
2.202000
0
LINE
8
Layer 1
10
111.616000
20
2.202000
11
110.592000
21
2.202000
0
LINE
8
Layer 1
10
110.592000
20
2.202000
11
109.568000
21
2.202000
0
LINE
8
Layer 1
10
109.568000
20
2.202000
11
108.544000
21
2.202000
0
LINE
8
Layer 1
10
108.544000
20
2.202000
11
107.520000
21
2.202000
0
LINE
8
Layer 1
10
107.520000
20
2.202000
11
106.496000
21
2.202000
0
LINE
8
Layer 1
10
106.496000
20
2.202000
11
105.472000
21
2.202000
0
LINE
8
Layer 1
10
105.472000
20
2.202000
11
104.448000
21
2.202000
0
LINE
8
Layer 1
10
104.448000
20
2.202000
11
103.424000
21
2.202000
0
LINE
8
Layer 1
10
103.424000
20
2.202000
11
102.400000
21
2.202000
0
LINE
8
Layer 1
10
102.400000
20
2.202000
11
101.376000
21
2.202000
0
LINE
8
Layer 1
10
101.376000
20
2.202000
11
100.352000
21
2.202000
0
LINE
8
Layer 1
10
100.352000
20
2.202000
11
99.328000
21
2.202000
0
LINE
8
Layer 1
10
99.328000
20
2.202000
11
98.304000
21
2.202000
0
LINE
8
Layer 1
10
98.304000
20
2.202000
11
97.280000
21
2.202000
0
LINE
8
Layer 1
10
97.280000
20
2.202000
11
96.256000
21
2.202000
0
LINE
8
Layer 1
10
96.256000
20
2.202000
11
95.232000
21
2.202000
0
LINE
8
Layer 1
10
95.232000
20
2.202000
11
94.208000
21
2.202000
0
LINE
8
Layer 1
10
94.208000
20
2.202000
11
93.184000
21
2.202000
0
LINE
8
Layer 1
10
93.184000
20
2.202000
11
92.160000
21
2.202000
0
LINE
8
Layer 1
10
92.160000
20
2.202000
11
91.136000
21
2.202000
0
LINE
8
Layer 1
10
91.136000
20
2.202000
11
90.112000
21
2.202000
0
LINE
8
Layer 1
10
90.112000
20
2.202000
11
89.088000
21
2.202000
0
LINE
8
Layer 1
10
89.088000
20
2.202000
11
88.064000
21
2.202000
0
LINE
8
Layer 1
10
88.064000
20
2.202000
11
87.040000
21
2.202000
0
LINE
8
Layer 1
10
87.040000
20
2.202000
11
86.016000
21
2.202000
0
LINE
8
Layer 1
10
86.016000
20
2.202000
11
84.992000
21
2.202000
0
LINE
8
Layer 1
10
84.992000
20
2.202000
11
83.968000
21
2.202000
0
LINE
8
Layer 1
10
83.968000
20
2.202000
11
82.944000
21
2.202000
0
LINE
8
Layer 1
10
82.944000
20
2.202000
11
81.920000
21
2.202000
0
LINE
8
Layer 1
10
81.920000
20
2.202000
11
80.896000
21
2.202000
0
LINE
8
Layer 1
10
80.896000
20
2.202000
11
79.872000
21
2.202000
0
LINE
8
Layer 1
10
79.872000
20
2.202000
11
78.848000
21
2.202000
0
LINE
8
Layer 1
10
78.848000
20
2.202000
11
77.824000
21
2.202000
0
LINE
8
Layer 1
10
77.824000
20
2.202000
11
76.800000
21
2.202000
0
LINE
8
Layer 1
10
76.800000
20
2.202000
11
75.776000
21
2.202000
0
LINE
8
Layer 1
10
75.776000
20
2.202000
11
74.752000
21
2.202000
0
LINE
8
Layer 1
10
74.752000
20
2.202000
11
73.728000
21
2.202000
0
LINE
8
Layer 1
10
73.728000
20
2.202000
11
72.704000
21
2.202000
0
LINE
8
Layer 1
10
72.704000
20
2.202000
11
71.680000
21
2.202000
0
LINE
8
Layer 1
10
71.680000
20
2.202000
11
70.656000
21
2.202000
0
LINE
8
Layer 1
10
70.656000
20
2.202000
11
69.632000
21
2.202000
0
LINE
8
Layer 1
10
69.632000
20
2.202000
11
68.608000
21
2.202000
0
LINE
8
Layer 1
10
68.608000
20
2.202000
11
67.584000
21
2.202000
0
LINE
8
Layer 1
10
67.584000
20
2.202000
11
66.560000
21
2.202000
0
LINE
8
Layer 1
10
66.560000
20
2.202000
11
65.536000
21
2.202000
0
LINE
8
Layer 1
10
65.536000
20
2.202000
11
64.512000
21
2.202000
0
LINE
8
Layer 1
10
64.512000
20
2.202000
11
63.488000
21
2.202000
0
LINE
8
Layer 1
10
63.488000
20
2.202000
11
62.464000
21
2.202000
0
LINE
8
Layer 1
10
62.464000
20
2.202000
11
61.440000
21
2.202000
0
LINE
8
Layer 1
10
61.440000
20
2.202000
11
60.416000
21
2.202000
0
LINE
8
Layer 1
10
60.416000
20
2.202000
11
59.392000
21
2.202000
0
LINE
8
Layer 1
10
59.392000
20
2.202000
11
58.368000
21
2.202000
0
LINE
8
Layer 1
10
58.368000
20
2.202000
11
57.344000
21
2.202000
0
LINE
8
Layer 1
10
57.344000
20
2.202000
11
56.320000
21
2.202000
0
LINE
8
Layer 1
10
56.320000
20
2.202000
11
55.296000
21
2.202000
0
LINE
8
Layer 1
10
55.296000
20
2.202000
11
54.272000
21
2.202000
0
LINE
8
Layer 1
10
54.272000
20
2.202000
11
53.248000
21
2.202000
0
LINE
8
Layer 1
10
53.248000
20
2.202000
11
52.224000
21
2.202000
0
LINE
8
Layer 1
10
52.224000
20
2.202000
11
51.200000
21
2.202000
0
LINE
8
Layer 1
10
51.200000
20
2.202000
11
50.176000
21
2.202000
0
LINE
8
Layer 1
10
50.176000
20
2.202000
11
49.152000
21
2.202000
0
LINE
8
Layer 1
10
49.152000
20
2.202000
11
48.128000
21
2.202000
0
LINE
8
Layer 1
10
48.128000
20
2.202000
11
47.104000
21
2.202000
0
LINE
8
Layer 1
10
47.104000
20
2.202000
11
46.080000
21
2.202000
0
LINE
8
Layer 1
10
46.080000
20
2.202000
11
45.056000
21
2.202000
0
LINE
8
Layer 1
10
45.056000
20
2.202000
11
44.032000
21
2.202000
0
LINE
8
Layer 1
10
44.032000
20
2.202000
11
43.008000
21
2.202000
0
LINE
8
Layer 1
10
43.008000
20
2.202000
11
41.984000
21
2.202000
0
LINE
8
Layer 1
10
41.984000
20
2.202000
11
40.960000
21
2.202000
0
LINE
8
Layer 1
10
40.960000
20
2.202000
11
39.936000
21
2.202000
0
LINE
8
Layer 1
10
39.936000
20
2.202000
11
38.912000
21
2.202000
0
LINE
8
Layer 1
10
38.912000
20
2.202000
11
37.888000
21
2.202000
0
LINE
8
Layer 1
10
37.888000
20
2.202000
11
36.864000
21
2.202000
0
LINE
8
Layer 1
10
36.864000
20
2.202000
11
35.840000
21
2.202000
0
LINE
8
Layer 1
10
35.840000
20
2.202000
11
34.816000
21
2.202000
0
LINE
8
Layer 1
10
34.816000
20
2.202000
11
33.792000
21
2.202000
0
LINE
8
Layer 1
10
33.792000
20
2.202000
11
32.768000
21
2.202000
0
LINE
8
Layer 1
10
32.768000
20
2.202000
11
31.744000
21
2.202000
0
LINE
8
Layer 1
10
31.744000
20
2.202000
11
30.720000
21
2.202000
0
LINE
8
Layer 1
10
30.720000
20
2.202000
11
29.696000
21
2.202000
0
LINE
8
Layer 1
10
29.696000
20
2.202000
11
28.672000
21
2.202000
0
LINE
8
Layer 1
10
28.672000
20
2.202000
11
27.648000
21
2.202000
0
LINE
8
Layer 1
10
27.648000
20
2.202000
11
26.624000
21
2.202000
0
LINE
8
Layer 1
10
26.624000
20
2.202000
11
25.600000
21
2.202000
0
LINE
8
Layer 1
10
25.600000
20
2.202000
11
24.576000
21
2.202000
0
LINE
8
Layer 1
10
24.576000
20
2.202000
11
23.552000
21
2.202000
0
LINE
8
Layer 1
10
23.552000
20
2.202000
11
22.528000
21
2.202000
0
LINE
8
Layer 1
10
22.528000
20
2.202000
11
21.504000
21
2.202000
0
LINE
8
Layer 1
10
21.504000
20
2.202000
11
20.480000
21
2.202000
0
LINE
8
Layer 1
10
20.480000
20
2.202000
11
19.456000
21
2.202000
0
LINE
8
Layer 1
10
19.456000
20
2.202000
11
18.432000
21
2.202000
0
LINE
8
Layer 1
10
18.432000
20
2.202000
11
17.408000
21
2.202000
0
LINE
8
Layer 1
10
17.408000
20
2.202000
11
16.384000
21
2.202000
0
LINE
8
Layer 1
10
16.384000
20
2.202000
11
15.360000
21
2.202000
0
LINE
8
Layer 1
10
15.360000
20
2.202000
11
14.336000
21
2.202000
0
LINE
8
Layer 1
10
14.336000
20
2.202000
11
13.312000
21
2.202000
0
LINE
8
Layer 1
10
13.312000
20
2.202000
11
12.288000
21
2.202000
0
LINE
8
Layer 1
10
12.288000
20
2.202000
11
11.264000
21
2.202000
0
LINE
8
Layer 1
10
11.264000
20
2.202000
11
10.240000
21
2.202000
0
LINE
8
Layer 1
10
10.240000
20
2.202000
11
9.216000
21
2.202000
0
LINE
8
Layer 1
10
9.216000
20
2.202000
11
8.192000
21
2.202000
0
LINE
8
Layer 1
10
8.192000
20
2.202000
11
7.168000
21
2.202000
0
LINE
8
Layer 1
10
7.168000
20
2.202000
11
6.144000
21
2.202000
0
LINE
8
Layer 1
10
6.144000
20
2.202000
11
5.120000
21
2.202000
0
LINE
8
Layer 1
10
5.120000
20
2.202000
11
4.096000
21
2.202000
0
LINE
8
Layer 1
10
4.096000
20
2.202000
11
3.072000
21
2.202000
0
LINE
8
Layer 1
10
3.072000
20
2.202000
11
2.048000
21
2.202000
0
LINE
8
Layer 1
10
2.048000
20
2.202000
11
1.024000
21
2.202000
0
LINE
8
Layer 1
10
1.024000
20
2.202000
11
0.000000
21
2.202000
0
LINE
8
Layer 1
10
0.000000
20
2.202000
11
-1.024000
21
2.202000
0
LINE
8
Layer 1
10
-1.024000
20
2.202000
11
-2.048000
21
2.202000
0
LINE
8
Layer 1
10
-2.048000
20
2.202000
11
-3.072000
21
2.202000
0
LINE
8
Layer 1
10
-3.072000
20
2.202000
11
-4.096000
21
2.202000
0
LINE
8
Layer 1
10
-4.096000
20
2.202000
11
-5.120000
21
2.202000
0
LINE
8
Layer 1
10
-5.120000
20
2.202000
11
-6.144000
21
2.202000
0
LINE
8
Layer 1
10
-6.144000
20
2.202000
11
-7.168000
21
2.202000
0
LINE
8
Layer 1
10
-7.168000
20
2.202000
11
-8.192000
21
2.202000
0
LINE
8
Layer 1
10
-8.192000
20
2.202000
11
-9.216000
21
2.202000
0
LINE
8
Layer 1
10
-9.216000
20
2.202000
11
-10.240000
21
2.202000
0
LINE
8
Layer 1
10
-10.240000
20
2.202000
11
-11.264000
21
2.202000
0
LINE
8
Layer 1
10
-11.264000
20
2.202000
11
-12.288000
21
2.202000
0
LINE
8
Layer 1
10
-12.288000
20
2.202000
11
-13.312000
21
2.202000
0
LINE
8
Layer 1
10
-13.312000
20
2.202000
11
-14.336000
21
2.202000
0
LINE
8
Layer 1
10
-14.336000
20
2.202000
11
-15.360000
21
2.202000
0
LINE
8
Layer 1
10
-15.360000
20
2.202000
11
-16.384000
21
2.202000
0
LINE
8
Layer 1
10
-16.384000
20
2.202000
11
-17.408000
21
2.202000
0
LINE
8
Layer 1
10
-17.408000
20
2.202000
11
-18.432000
21
2.202000
0
LINE
8
Layer 1
10
-18.432000
20
2.202000
11
-19.000000
21
2.202000
0
LINE
8
Layer 1
10
-19.000000
20
2.202000
11
-19.456000
21
2.202000
0
LINE
8
Layer 1
10
-19.456000
20
2.202000
11
-20.480000
21
2.202000
0
LINE
8
Layer 1
10
-20.480000
20
2.202000
11
-21.479000
21
2.202000
0
LINE
8
Layer 1
10
-21.479000
20
2.202000
11
-21.504000
21
2.202000
0
LINE
8
Layer 1
10
-21.504000
20
2.202000
11
-22.528000
21
2.202000
0
LINE
8
Layer 1
10
-22.528000
20
2.202000
11
-23.552000
21
2.202000
0
LINE
8
Layer 1
10
-23.552000
20
2.202000
11
-24.576000
21
2.202000
0
LINE
8
Layer 1
10
-24.576000
20
2.202000
11
-25.600000
21
2.202000
0
LINE
8
Layer 1
10
-25.600000
20
2.202000
11
-26.624000
21
2.202000
0
LINE
8
Layer 1
10
-26.624000
20
2.202000
11
-27.648000
21
2.202000
0
LINE
8
Layer 1
10
-27.648000
20
2.202000
11
-28.672000
21
2.202000
0
LINE
8
Layer 1
10
-28.672000
20
2.202000
11
-29.696000
21
2.202000
0
LINE
8
Layer 1
10
-29.696000
20
2.202000
11
-30.720000
21
2.202000
0
LINE
8
Layer 1
10
-30.720000
20
2.202000
11
-31.744000
21
2.202000
0
LINE
8
Layer 1
10
-31.744000
20
2.202000
11
-32.768000
21
2.202000
0
LINE
8
Layer 1
10
-32.768000
20
2.202000
11
-33.792000
21
2.202000
0
LINE
8
Layer 1
10
-33.792000
20
2.202000
11
-34.816000
21
2.202000
0
LINE
8
Layer 1
10
-34.816000
20
2.202000
11
-35.840000
21
2.202000
0
LINE
8
Layer 1
10
-35.840000
20
2.202000
11
-36.864000
21
2.202000
0
LINE
8
Layer 1
10
-36.864000
20
2.202000
11
-37.888000
21
2.202000
0
LINE
8
Layer 1
10
-37.888000
20
2.202000
11
-38.912000
21
2.202000
0
LINE
8
Layer 1
10
-38.912000
20
2.202000
11
-39.936000
21
2.202000
0
LINE
8
Layer 1
10
-39.936000
20
2.202000
11
-40.960000
21
2.202000
0
LINE
8
Layer 1
10
-40.960000
20
2.202000
11
-41.984000
21
2.202000
0
LINE
8
Layer 1
10
-41.984000
20
2.202000
11
-43.008000
21
2.202000
0
LINE
8
Layer 1
10
-43.008000
20
2.202000
11
-44.032000
21
2.202000
0
LINE
8
Layer 1
10
-44.032000
20
2.202000
11
-45.056000
21
2.202000
0
LINE
8
Layer 1
10
-45.056000
20
2.202000
11
-46.080000
21
2.202000
0
LINE
8
Layer 1
10
-46.080000
20
2.202000
11
-47.104000
21
2.202000
0
LINE
8
Layer 1
10
-47.104000
20
2.202000
11
-48.128000
21
2.202000
0
LINE
8
Layer 1
10
-48.128000
20
2.202000
11
-49.152000
21
2.202000
0
LINE
8
Layer 1
10
-49.152000
20
2.202000
11
-50.176000
21
2.202000
0
LINE
8
Layer 1
10
-50.176000
20
2.202000
11
-51.200000
21
2.202000
0
LINE
8
Layer 1
10
-51.200000
20
2.202000
11
-52.224000
21
2.202000
0
LINE
8
Layer 1
10
-52.224000
20
2.202000
11
-53.248000
21
2.202000
0
LINE
8
Layer 1
10
-53.248000
20
2.202000
11
-54.272000
21
2.202000
0
LINE
8
Layer 1
10
-54.272000
20
2.202000
11
-55.200000
21
2.202000
0
LINE
8
Layer 1
10
-55.200000
20
2.202000
11
-55.296000
21
2.202000
0
LINE
8
Layer 1
10
-55.296000
20
2.202000
11
-56.320000
21
2.202000
0
LINE
8
Layer 1
10
-56.320000
20
2.202000
11
-57.344000
21
2.202000
0
LINE
8
Layer 1
10
-57.344000
20
2.202000
11
-58.300000
21
2.202000
0
LINE
8
Layer 1
10
-58.300000
20
2.202000
11
-58.368000
21
2.202000
0
LINE
8
Layer 1
10
-58.368000
20
2.202000
11
-59.000000
21
2.202000
0
LINE
8
Layer 1
10
-59.000000
20
2.202000
11
-59.392000
21
2.202000
0
LINE
8
Layer 1
10
-59.392000
20
2.202000
11
-60.416000
21
2.202000
0
LINE
8
Layer 1
10
-60.416000
20
2.202000
11
-60.479000
21
2.202000
0
LINE
8
Layer 1
10
-60.479000
20
2.202000
11
-61.440000
21
2.202000
0
LINE
8
Layer 1
10
-61.440000
20
2.202000
11
-62.464000
21
2.202000
0
LINE
8
Layer 1
10
-62.464000
20
2.202000
11
-63.488000
21
2.202000
0
LINE
8
Layer 1
10
-63.488000
20
2.202000
11
-64.512000
21
2.202000
0
LINE
8
Layer 1
10
-64.512000
20
2.202000
11
-65.536000
21
2.202000
0
LINE
8
Layer 1
10
-65.536000
20
2.202000
11
-66.560000
21
2.202000
0
LINE
8
Layer 1
10
-66.560000
20
2.202000
11
-67.584000
21
2.202000
0
LINE
8
Layer 1
10
-67.584000
20
2.202000
11
-68.608000
21
2.202000
0
LINE
8
Layer 1
10
-68.608000
20
2.202000
11
-69.632000
21
2.202000
0
LINE
8
Layer 1
10
-69.632000
20
2.202000
11
-70.656000
21
2.202000
0
LINE
8
Layer 1
10
-70.656000
20
2.202000
11
-71.680000
21
2.202000
0
LINE
8
Layer 1
10
-71.680000
20
2.202000
11
-72.704000
21
2.202000
0
LINE
8
Layer 1
10
-72.704000
20
2.202000
11
-73.728000
21
2.202000
0
LINE
8
Layer 1
10
-73.728000
20
2.202000
11
-74.752000
21
2.202000
0
LINE
8
Layer 1
10
-74.752000
20
2.202000
11
-75.776000
21
2.202000
0
LINE
8
Layer 1
10
-75.776000
20
2.202000
11
-76.800000
21
2.202000
0
LINE
8
Layer 1
10
-76.800000
20
2.202000
11
-77.802000
21
2.202000
0
LINE
8
Layer 1
10
-77.802000
20
2.202000
11
-77.824000
21
2.202470
0
LINE
8
Layer 1
10
-77.824000
20
2.202470
11
-78.272000
21
2.212010
0
LINE
8
Layer 1
10
-78.272000
20
2.212010
11
-78.740000
21
2.244000
0
LINE
8
Layer 1
10
-78.740000
20
2.244000
11
-78.848000
21
2.256150
0
LINE
8
Layer 1
10
-78.848000
20
2.256150
11
-79.202000
21
2.296010
0
LINE
8
Layer 1
10
-79.202000
20
2.296010
11
-79.648800
21
2.368000
0
LINE
8
Layer 1
10
-79.648800
20
2.368000
11
-79.655000
21
2.369000
0
LINE
8
Layer 1
10
-79.655000
20
2.369000
11
-79.872000
21
2.414660
0
LINE
8
Layer 1
10
-79.872000
20
2.414660
11
-80.097000
21
2.462010
0
LINE
8
Layer 1
10
-80.097000
20
2.462010
11
-80.384000
21
2.537110
0
LINE
8
Layer 1
10
-80.384000
20
2.537110
11
-80.525000
21
2.574010
0
LINE
8
Layer 1
10
-80.525000
20
2.574010
11
-80.896000
21
2.692250
0
LINE
8
Layer 1
10
-80.896000
20
2.692250
11
-80.936000
21
2.705000
0
LINE
8
Layer 1
10
-80.936000
20
2.705000
11
-81.327000
21
2.854000
0
LINE
8
Layer 1
10
-81.327000
20
2.854000
11
-81.384900
21
2.880000
0
LINE
8
Layer 1
10
-81.384900
20
2.880000
11
-81.408000
21
2.890340
0
LINE
8
Layer 1
10
-81.408000
20
2.890340
11
-81.697000
21
3.020000
0
LINE
8
Layer 1
10
-81.697000
20
3.020000
11
-81.920000
21
3.137300
0
LINE
8
Layer 1
10
-81.920000
20
3.137300
11
-82.043000
21
3.202000
0
LINE
8
Layer 1
10
-82.043000
20
3.202000
11
-82.351600
21
3.392000
0
LINE
8
Layer 1
10
-82.351600
20
3.392000
11
-82.363000
21
3.399000
0
LINE
8
Layer 1
10
-82.363000
20
3.399000
11
-82.432000
21
3.448790
0
LINE
8
Layer 1
10
-82.432000
20
3.448790
11
-82.654000
21
3.608990
0
LINE
8
Layer 1
10
-82.654000
20
3.608990
11
-82.916000
21
3.832000
0
LINE
8
Layer 1
10
-82.916000
20
3.832000
11
-82.944000
21
3.860490
0
LINE
8
Layer 1
10
-82.944000
20
3.860490
11
-82.986800
21
3.904010
0
LINE
8
Layer 1
10
-82.986800
20
3.904010
11
-83.146000
21
4.065990
0
LINE
8
Layer 1
10
-83.146000
20
4.065990
11
-83.343000
21
4.309010
0
LINE
8
Layer 1
10
-83.343000
20
4.309010
11
-83.412200
21
4.416000
0
LINE
8
Layer 1
10
-83.412200
20
4.416000
11
-83.456000
21
4.483700
0
LINE
8
Layer 1
10
-83.456000
20
4.483700
11
-83.506000
21
4.561000
0
LINE
8
Layer 1
10
-83.506000
20
4.561000
11
-83.634000
21
4.819000
0
LINE
8
Layer 1
10
-83.634000
20
4.819000
11
-83.672100
21
4.927990
0
LINE
8
Layer 1
10
-83.672100
20
4.927990
11
-83.726000
21
5.082000
0
LINE
8
Layer 1
10
-83.726000
20
5.082000
11
-83.782000
21
5.348010
0
LINE
8
Layer 1
10
-83.782000
20
5.348010
11
-83.788200
21
5.440000
0
LINE
8
Layer 1
10
-83.788200
20
5.440000
11
-83.800000
21
5.616000
0
LINE
8
Layer 1
10
-83.800000
20
5.616000
11
-83.800000
21
6.464000
0
LINE
8
Layer 1
10
-83.800000
20
6.464000
11
-83.800000
21
7.488010
0
LINE
8
Layer 1
10
-83.800000
20
7.488010
11
-83.800000
21
8.511990
0
LINE
8
Layer 1
10
-83.800000
20
8.511990
11
-83.800000
21
9.536000
0
LINE
8
Layer 1
10
-83.800000
20
9.536000
11
-83.800000
21
10.560000
0
LINE
8
Layer 1
10
-83.800000
20
10.560000
11
-83.800000
21
11.584000
0
LINE
8
Layer 1
10
-83.800000
20
11.584000
11
-83.800000
21
12.608000
0
LINE
8
Layer 1
10
-83.800000
20
12.608000
11
-83.800000
21
13.632000
0
LINE
8
Layer 1
10
-83.800000
20
13.632000
11
-83.800000
21
14.656000
0
LINE
8
Layer 1
10
-83.800000
20
14.656000
11
-83.800000
21
15.680000
0
LINE
8
Layer 1
10
-83.800000
20
15.680000
11
-83.800000
21
16.704000
0
LINE
8
Layer 1
10
-83.800000
20
16.704000
11
-83.800000
21
17.728000
0
LINE
8
Layer 1
10
-83.800000
20
17.728000
11
-83.800000
21
18.752000
0
LINE
8
Layer 1
10
-83.800000
20
18.752000
11
-83.800000
21
19.776000
0
LINE
8
Layer 1
10
-83.800000
20
19.776000
11
-83.800000
21
20.800000
0
LINE
8
Layer 1
10
-83.800000
20
20.800000
11
-83.800000
21
21.824000
0
LINE
8
Layer 1
10
-83.800000
20
21.824000
11
-83.800000
21
22.848000
0
LINE
8
Layer 1
10
-83.800000
20
22.848000
11
-83.800000
21
23.872000
0
LINE
8
Layer 1
10
-83.800000
20
23.872000
11
-83.800000
21
24.896000
0
LINE
8
Layer 1
10
-83.800000
20
24.896000
11
-83.800000
21
25.920000
0
LINE
8
Layer 1
10
-83.800000
20
25.920000
11
-83.800000
21
26.944000
0
LINE
8
Layer 1
10
-83.800000
20
26.944000
11
-83.800000
21
27.968000
0
LINE
8
Layer 1
10
-83.800000
20
27.968000
11
-83.800000
21
28.992000
0
LINE
8
Layer 1
10
-83.800000
20
28.992000
11
-83.800000
21
30.016000
0
LINE
8
Layer 1
10
-83.800000
20
30.016000
11
-83.800000
21
31.040000
0
LINE
8
Layer 1
10
-83.800000
20
31.040000
11
-83.800000
21
32.064000
0
LINE
8
Layer 1
10
-83.800000
20
32.064000
11
-83.800000
21
33.088000
0
LINE
8
Layer 1
10
-83.800000
20
33.088000
11
-83.800000
21
34.112000
0
LINE
8
Layer 1
10
-83.800000
20
34.112000
11
-83.800000
21
35.136000
0
LINE
8
Layer 1
10
-83.800000
20
35.136000
11
-83.800000
21
36.160000
0
LINE
8
Layer 1
10
-83.800000
20
36.160000
11
-83.800000
21
37.184000
0
LINE
8
Layer 1
10
-83.800000
20
37.184000
11
-83.800000
21
38.208000
0
LINE
8
Layer 1
10
-83.800000
20
38.208000
11
-83.800000
21
39.232000
0
LINE
8
Layer 1
10
-83.800000
20
39.232000
11
-83.800000
21
40.256000
0
LINE
8
Layer 1
10
-83.800000
20
40.256000
11
-83.800000
21
41.280000
0
LINE
8
Layer 1
10
-83.800000
20
41.280000
11
-83.800000
21
42.304000
0
LINE
8
Layer 1
10
-83.800000
20
42.304000
11
-83.800000
21
43.328000
0
LINE
8
Layer 1
10
-83.800000
20
43.328000
11
-83.800000
21
44.352000
0
LINE
8
Layer 1
10
-83.800000
20
44.352000
11
-83.800000
21
45.376000
0
LINE
8
Layer 1
10
-83.800000
20
45.376000
11
-83.800000
21
46.400000
0
LINE
8
Layer 1
10
-83.800000
20
46.400000
11
-83.800000
21
47.424000
0
LINE
8
Layer 1
10
-83.800000
20
47.424000
11
-83.800000
21
48.448000
0
LINE
8
Layer 1
10
-83.800000
20
48.448000
11
-83.800000
21
49.472000
0
LINE
8
Layer 1
10
-83.800000
20
49.472000
11
-83.800000
21
50.496000
0
LINE
8
Layer 1
10
-83.800000
20
50.496000
11
-83.800000
21
51.520000
0
LINE
8
Layer 1
10
-83.800000
20
51.520000
11
-83.800000
21
52.544000
0
LINE
8
Layer 1
10
-83.800000
20
52.544000
11
-83.800000
21
53.568000
0
LINE
8
Layer 1
10
-83.800000
20
53.568000
11
-83.800000
21
54.592000
0
LINE
8
Layer 1
10
-83.800000
20
54.592000
11
-83.800000
21
55.616000
0
LINE
8
Layer 1
10
-83.800000
20
55.616000
11
-83.800000
21
56.640000
0
LINE
8
Layer 1
10
-83.800000
20
56.640000
11
-83.800000
21
57.664000
0
LINE
8
Layer 1
10
-83.800000
20
57.664000
11
-83.800000
21
58.688000
0
LINE
8
Layer 1
10
-83.800000
20
58.688000
11
-83.800000
21
59.712000
0
LINE
8
Layer 1
10
-83.800000
20
59.712000
11
-83.800000
21
60.736000
0
LINE
8
Layer 1
10
-83.800000
20
60.736000
11
-83.800000
21
61.760000
0
LINE
8
Layer 1
10
-83.800000
20
61.760000
11
-83.800000
21
62.784000
0
LINE
8
Layer 1
10
-83.800000
20
62.784000
11
-83.800000
21
63.808000
0
LINE
8
Layer 1
10
-83.800000
20
63.808000
11
-83.800000
21
64.832000
0
LINE
8
Layer 1
10
-83.800000
20
64.832000
11
-83.800000
21
65.856000
0
LINE
8
Layer 1
10
-83.800000
20
65.856000
11
-83.800000
21
66.880000
0
LINE
8
Layer 1
10
-83.800000
20
66.880000
11
-83.800000
21
67.904000
0
LINE
8
Layer 1
10
-83.800000
20
67.904000
11
-83.800000
21
68.928000
0
LINE
8
Layer 1
10
-83.800000
20
68.928000
11
-83.800000
21
69.952000
0
LINE
8
Layer 1
10
-83.800000
20
69.952000
11
-83.800000
21
70.976000
0
LINE
8
Layer 1
10
-83.800000
20
70.976000
11
-83.800000
21
72.000000
0
LINE
8
Layer 1
10
-83.800000
20
72.000000
11
-83.800000
21
73.024000
0
LINE
8
Layer 1
10
-83.800000
20
73.024000
11
-83.800000
21
74.048000
0
LINE
8
Layer 1
10
-83.800000
20
74.048000
11
-83.800000
21
75.072000
0
LINE
8
Layer 1
10
-83.800000
20
75.072000
11
-83.800000
21
76.096000
0
LINE
8
Layer 1
10
-83.800000
20
76.096000
11
-83.800000
21
77.120000
0
LINE
8
Layer 1
10
-83.800000
20
77.120000
11
-83.800000
21
78.144000
0
LINE
8
Layer 1
10
-83.800000
20
78.144000
11
-83.800000
21
79.168000
0
LINE
8
Layer 1
10
-83.800000
20
79.168000
11
-83.800000
21
80.192000
0
LINE
8
Layer 1
10
-83.800000
20
80.192000
11
-83.800000
21
81.216000
0
LINE
8
Layer 1
10
-83.800000
20
81.216000
11
-83.800000
21
82.240000
0
LINE
8
Layer 1
10
-83.800000
20
82.240000
11
-83.800000
21
83.264000
0
LINE
8
Layer 1
10
-83.800000
20
83.264000
11
-83.800000
21
84.288000
0
LINE
8
Layer 1
10
-83.800000
20
84.288000
11
-83.800000
21
85.312000
0
LINE
8
Layer 1
10
-83.800000
20
85.312000
11
-83.800000
21
86.336000
0
LINE
8
Layer 1
10
-83.800000
20
86.336000
11
-83.800000
21
87.360000
0
LINE
8
Layer 1
10
-83.800000
20
87.360000
11
-83.800000
21
88.384000
0
LINE
8
Layer 1
10
-83.800000
20
88.384000
11
-83.800000
21
89.408000
0
LINE
8
Layer 1
10
-83.800000
20
89.408000
11
-83.800000
21
90.432000
0
LINE
8
Layer 1
10
-83.800000
20
90.432000
11
-83.800000
21
91.456000
0
LINE
8
Layer 1
10
-83.800000
20
91.456000
11
-83.800000
21
92.480000
0
LINE
8
Layer 1
10
-83.800000
20
92.480000
11
-83.800000
21
93.504000
0
LINE
8
Layer 1
10
-83.800000
20
93.504000
11
-83.800000
21
94.528000
0
LINE
8
Layer 1
10
-83.800000
20
94.528000
11
-83.800000
21
95.552000
0
LINE
8
Layer 1
10
-83.800000
20
95.552000
11
-83.800000
21
96.576000
0
LINE
8
Layer 1
10
-83.800000
20
96.576000
11
-83.800000
21
97.600000
0
LINE
8
Layer 1
10
-83.800000
20
97.600000
11
-83.800000
21
98.624000
0
LINE
8
Layer 1
10
-83.800000
20
98.624000
11
-83.800000
21
99.648000
0
LINE
8
Layer 1
10
-83.800000
20
99.648000
11
-83.800000
21
100.672000
0
LINE
8
Layer 1
10
-83.800000
20
100.672000
11
-83.800000
21
101.696000
0
LINE
8
Layer 1
10
-83.800000
20
101.696000
11
-83.800000
21
102.720000
0
LINE
8
Layer 1
10
-83.800000
20
102.720000
11
-83.800000
21
103.744000
0
LINE
8
Layer 1
10
-83.800000
20
103.744000
11
-83.800000
21
104.768000
0
LINE
8
Layer 1
10
-83.800000
20
104.768000
11
-83.800000
21
105.792000
0
LINE
8
Layer 1
10
-83.800000
20
105.792000
11
-83.800000
21
106.816000
0
LINE
8
Layer 1
10
-83.800000
20
106.816000
11
-83.800000
21
107.840000
0
LINE
8
Layer 1
10
-83.800000
20
107.840000
11
-83.800000
21
108.864000
0
LINE
8
Layer 1
10
-83.800000
20
108.864000
11
-83.800000
21
109.888000
0
LINE
8
Layer 1
10
-83.800000
20
109.888000
11
-83.800000
21
110.912000
0
LINE
8
Layer 1
10
-83.800000
20
110.912000
11
-83.800000
21
111.936000
0
LINE
8
Layer 1
10
-83.800000
20
111.936000
11
-83.800000
21
112.960000
0
LINE
8
Layer 1
10
-83.800000
20
112.960000
11
-83.800000
21
113.984000
0
LINE
8
Layer 1
10
-83.800000
20
113.984000
11
-83.800000
21
115.008000
0
LINE
8
Layer 1
10
-83.800000
20
115.008000
11
-83.800000
21
116.032000
0
LINE
8
Layer 1
10
-83.800000
20
116.032000
11
-83.800000
21
117.056000
0
LINE
8
Layer 1
10
-83.800000
20
117.056000
11
-83.800000
21
118.080000
0
LINE
8
Layer 1
10
-83.800000
20
118.080000
11
-83.800000
21
119.104000
0
LINE
8
Layer 1
10
-83.800000
20
119.104000
11
-83.800000
21
120.128000
0
LINE
8
Layer 1
10
-83.800000
20
120.128000
11
-83.800000
21
121.152000
0
LINE
8
Layer 1
10
-83.800000
20
121.152000
11
-83.800000
21
122.176000
0
LINE
8
Layer 1
10
-83.800000
20
122.176000
11
-83.800000
21
123.200000
0
LINE
8
Layer 1
10
-83.800000
20
123.200000
11
-83.800000
21
124.224000
0
LINE
8
Layer 1
10
-83.800000
20
124.224000
11
-83.800000
21
125.248000
0
LINE
8
Layer 1
10
-83.800000
20
125.248000
11
-83.800000
21
126.272000
0
LINE
8
Layer 1
10
-83.800000
20
126.272000
11
-83.800000
21
127.296000
0
LINE
8
Layer 1
10
-83.800000
20
127.296000
11
-83.800000
21
128.320000
0
LINE
8
Layer 1
10
-83.800000
20
128.320000
11
-83.800000
21
129.344000
0
LINE
8
Layer 1
10
-83.800000
20
129.344000
11
-83.800000
21
130.368000
0
LINE
8
Layer 1
10
-83.800000
20
130.368000
11
-83.800000
21
131.392000
0
LINE
8
Layer 1
10
-83.800000
20
131.392000
11
-83.800000
21
132.416000
0
LINE
8
Layer 1
10
-83.800000
20
132.416000
11
-83.800000
21
133.440000
0
LINE
8
Layer 1
10
-83.800000
20
133.440000
11
-83.800000
21
134.464000
0
LINE
8
Layer 1
10
-83.800000
20
134.464000
11
-83.800000
21
135.488000
0
LINE
8
Layer 1
10
-83.800000
20
135.488000
11
-83.800000
21
136.512000
0
LINE
8
Layer 1
10
-83.800000
20
136.512000
11
-83.800000
21
137.536000
0
LINE
8
Layer 1
10
-83.800000
20
137.536000
11
-83.800000
21
138.560000
0
LINE
8
Layer 1
10
-83.800000
20
138.560000
11
-83.800000
21
139.584000
0
LINE
8
Layer 1
10
-83.800000
20
139.584000
11
-83.800000
21
140.608000
0
LINE
8
Layer 1
10
-83.800000
20
140.608000
11
-83.800000
21
141.632000
0
LINE
8
Layer 1
10
-83.800000
20
141.632000
11
-83.800000
21
142.656000
0
LINE
8
Layer 1
10
-83.800000
20
142.656000
11
-83.800000
21
143.680000
0
LINE
8
Layer 1
10
-83.800000
20
143.680000
11
-83.800000
21
144.704000
0
LINE
8
Layer 1
10
-83.800000
20
144.704000
11
-83.800000
21
145.728000
0
LINE
8
Layer 1
10
-83.800000
20
145.728000
11
-83.800000
21
146.752000
0
LINE
8
Layer 1
10
-83.800000
20
146.752000
11
-83.800000
21
147.776000
0
LINE
8
Layer 1
10
-83.800000
20
147.776000
11
-83.800000
21
148.800000
0
LINE
8
Layer 1
10
-83.800000
20
148.800000
11
-83.800000
21
149.824000
0
LINE
8
Layer 1
10
-83.800000
20
149.824000
11
-83.800000
21
150.848000
0
LINE
8
Layer 1
10
-83.800000
20
150.848000
11
-83.800000
21
151.872000
0
LINE
8
Layer 1
10
-83.800000
20
151.872000
11
-83.800000
21
152.896000
0
LINE
8
Layer 1
10
-83.800000
20
152.896000
11
-83.800000
21
153.920000
0
LINE
8
Layer 1
10
-83.800000
20
153.920000
11
-83.800000
21
154.944000
0
LINE
8
Layer 1
10
-83.800000
20
154.944000
11
-83.800000
21
155.968000
0
LINE
8
Layer 1
10
-83.800000
20
155.968000
11
-83.800000
21
156.992000
0
LINE
8
Layer 1
10
-83.800000
20
156.992000
11
-83.800000
21
158.016000
0
LINE
8
Layer 1
10
-83.800000
20
158.016000
11
-83.800000
21
159.040000
0
LINE
8
Layer 1
10
-83.800000
20
159.040000
11
-83.800000
21
160.064000
0
LINE
8
Layer 1
10
-83.800000
20
160.064000
11
-83.800000
21
161.088000
0
LINE
8
Layer 1
10
-83.800000
20
161.088000
11
-83.800000
21
162.112000
0
LINE
8
Layer 1
10
-83.800000
20
162.112000
11
-83.800000
21
163.136000
0
LINE
8
Layer 1
10
-83.800000
20
163.136000
11
-83.800000
21
164.160000
0
LINE
8
Layer 1
10
-83.800000
20
164.160000
11
-83.800000
21
165.184000
0
LINE
8
Layer 1
10
-83.800000
20
165.184000
11
-83.800000
21
166.208000
0
LINE
8
Layer 1
10
-83.800000
20
166.208000
11
-83.800000
21
167.232000
0
LINE
8
Layer 1
10
-83.800000
20
167.232000
11
-83.800000
21
168.256000
0
LINE
8
Layer 1
10
-83.800000
20
168.256000
11
-83.800000
21
169.280000
0
LINE
8
Layer 1
10
-83.800000
20
169.280000
11
-83.800000
21
170.304000
0
LINE
8
Layer 1
10
-83.800000
20
170.304000
11
-83.800000
21
171.328000
0
LINE
8
Layer 1
10
-83.800000
20
171.328000
11
-83.800000
21
172.352000
0
LINE
8
Layer 1
10
-83.800000
20
172.352000
11
-83.800000
21
173.376000
0
LINE
8
Layer 1
10
-83.800000
20
173.376000
11
-83.800000
21
174.400000
0
LINE
8
Layer 1
10
-83.800000
20
174.400000
11
-83.800000
21
175.424000
0
LINE
8
Layer 1
10
-83.800000
20
175.424000
11
-83.800000
21
176.448000
0
LINE
8
Layer 1
10
-83.800000
20
176.448000
11
-83.800000
21
177.472000
0
LINE
8
Layer 1
10
-83.800000
20
177.472000
11
-83.800000
21
178.496000
0
LINE
8
Layer 1
10
-83.800000
20
178.496000
11
-83.800000
21
179.520000
0
LINE
8
Layer 1
10
-83.800000
20
179.520000
11
-83.800000
21
180.544000
0
LINE
8
Layer 1
10
-83.800000
20
180.544000
11
-83.800000
21
181.568000
0
LINE
8
Layer 1
10
-83.800000
20
181.568000
11
-83.800000
21
182.592000
0
LINE
8
Layer 1
10
-83.800000
20
182.592000
11
-83.800000
21
183.616000
0
LINE
8
Layer 1
10
-83.800000
20
183.616000
11
-83.800000
21
184.640000
0
LINE
8
Layer 1
10
-83.800000
20
184.640000
11
-83.800000
21
185.664000
0
LINE
8
Layer 1
10
-83.800000
20
185.664000
11
-83.800000
21
186.688000
0
LINE
8
Layer 1
10
-83.800000
20
186.688000
11
-83.800000
21
187.712000
0
LINE
8
Layer 1
10
-83.800000
20
187.712000
11
-83.800000
21
188.736000
0
LINE
8
Layer 1
10
-83.800000
20
188.736000
11
-83.800000
21
189.760000
0
LINE
8
Layer 1
10
-83.800000
20
189.760000
11
-83.800000
21
190.784000
0
LINE
8
Layer 1
10
-83.800000
20
190.784000
11
-83.800000
21
191.808000
0
LINE
8
Layer 1
10
-83.800000
20
191.808000
11
-83.800000
21
192.832000
0
LINE
8
Layer 1
10
-83.800000
20
192.832000
11
-83.800000
21
193.856000
0
LINE
8
Layer 1
10
-83.800000
20
193.856000
11
-83.800000
21
194.880000
0
LINE
8
Layer 1
10
-83.800000
20
194.880000
11
-83.800000
21
195.904000
0
LINE
8
Layer 1
10
-83.800000
20
195.904000
11
-83.800000
21
196.788000
0
LINE
8
Layer 1
10
-83.800000
20
196.788000
11
-83.790600
21
196.928000
0
LINE
8
Layer 1
10
-83.790600
20
196.928000
11
-83.782000
21
197.056000
0
LINE
8
Layer 1
10
-83.782000
20
197.056000
11
-83.726000
21
197.322000
0
LINE
8
Layer 1
10
-83.726000
20
197.322000
11
-83.684700
21
197.440000
0
LINE
8
Layer 1
10
-83.684700
20
197.440000
11
-83.634000
21
197.585000
0
LINE
8
Layer 1
10
-83.634000
20
197.585000
11
-83.506000
21
197.843000
0
LINE
8
Layer 1
10
-83.506000
20
197.843000
11
-83.456000
21
197.920000
0
LINE
8
Layer 1
10
-83.456000
20
197.920000
11
-83.435500
21
197.952000
0
LINE
8
Layer 1
10
-83.435500
20
197.952000
11
-83.343000
21
198.095000
0
LINE
8
Layer 1
10
-83.343000
20
198.095000
11
-83.146000
21
198.338000
0
LINE
8
Layer 1
10
-83.146000
20
198.338000
11
-83.022200
21
198.464000
0
LINE
8
Layer 1
10
-83.022200
20
198.464000
11
-82.944000
21
198.544000
0
LINE
8
Layer 1
10
-82.944000
20
198.544000
11
-82.916000
21
198.572000
0
LINE
8
Layer 1
10
-82.916000
20
198.572000
11
-82.654000
21
198.795000
0
LINE
8
Layer 1
10
-82.654000
20
198.795000
11
-82.432000
21
198.955000
0
LINE
8
Layer 1
10
-82.432000
20
198.955000
11
-82.403200
21
198.976000
0
LINE
8
Layer 1
10
-82.403200
20
198.976000
11
-82.363000
21
199.005000
0
LINE
8
Layer 1
10
-82.363000
20
199.005000
11
-82.043000
21
199.202000
0
LINE
8
Layer 1
10
-82.043000
20
199.202000
11
-81.920000
21
199.267000
0
LINE
8
Layer 1
10
-81.920000
20
199.267000
11
-81.697000
21
199.384000
0
LINE
8
Layer 1
10
-81.697000
20
199.384000
11
-81.465200
21
199.488000
0
LINE
8
Layer 1
10
-81.465200
20
199.488000
11
-81.327000
21
199.550000
0
LINE
8
Layer 1
10
-81.327000
20
199.550000
11
-80.936000
21
199.699000
0
LINE
8
Layer 1
10
-80.936000
20
199.699000
11
-80.896000
21
199.712000
0
LINE
8
Layer 1
10
-80.896000
20
199.712000
11
-80.525000
21
199.830000
0
LINE
8
Layer 1
10
-80.525000
20
199.830000
11
-80.384000
21
199.867000
0
LINE
8
Layer 1
10
-80.384000
20
199.867000
11
-80.097000
21
199.942000
0
LINE
8
Layer 1
10
-80.097000
20
199.942000
11
-79.872000
21
199.989000
0
LINE
8
Layer 1
10
-79.872000
20
199.989000
11
-79.821300
21
200.000000
0
LINE
8
Layer 1
10
-79.821300
20
200.000000
11
-79.655000
21
200.035000
0
LINE
8
Layer 1
10
-79.655000
20
200.035000
11
-79.202000
21
200.108000
0
LINE
8
Layer 1
10
-79.202000
20
200.108000
11
-78.848000
21
200.148000
0
LINE
8
Layer 1
10
-78.848000
20
200.148000
11
-78.740000
21
200.160000
0
LINE
8
Layer 1
10
-78.740000
20
200.160000
11
-78.336000
21
200.187000
0
LINE
8
Layer 1
10
-78.336000
20
200.187000
11
-78.272000
21
200.191000
0
LINE
8
Layer 1
10
-78.272000
20
200.191000
11
-77.824000
21
200.201000
0
LINE
8
Layer 1
10
-77.824000
20
200.201000
11
-77.802000
21
200.202000
0
LINE
8
Layer 1
10
-77.802000
20
200.202000
11
-76.800000
21
200.202000
0
LINE
8
Layer 1
10
-76.800000
20
200.202000
11
-75.776000
21
200.202000
0
LINE
8
Layer 1
10
-75.776000
20
200.202000
11
-73.728000
21
200.202000
0
LINE
8
Layer 1
10
-73.728000
20
200.202000
11
-65.536000
21
200.202000
0
LINE
8
Layer 1
10
-65.536000
20
200.202000
11
-60.479000
21
200.202000
0
LINE
8
Layer 1
10
-60.479000
20
200.202000
11
-59.000000
21
200.202000
0
LINE
8
Layer 1
10
-59.000000
20
200.202000
11
-58.300000
21
200.202000
0
LINE
8
Layer 1
10
-58.300000
20
200.202000
11
-55.200000
21
200.202000
0
LINE
8
Layer 1
10
-55.200000
20
200.202000
11
-26.300000
21
200.202000
0
LINE
8
Layer 1
10
-26.300000
20
200.202000
11
-23.200000
21
200.202000
0
LINE
8
Layer 1
10
-23.200000
20
200.202000
11
-21.479000
21
200.202000
0
LINE
8
Layer 1
10
-21.479000
20
200.202000
11
-19.000000
21
200.202000
0
LINE
8
Layer 1
10
-19.000000
20
200.202000
11
0.000000
21
200.202000
0
LINE
8
Layer 1
10
0.000000
20
200.202000
11
131.072000
21
200.202000
0
LINE
8
Layer 1
10
131.072000
20
200.202000
11
196.608000
21
200.202000
0
LINE
8
Layer 1
10
196.608000
20
200.202000
11
229.376000
21
200.202000
0
LINE
8
Layer 1
10
229.376000
20
200.202000
11
245.760000
21
200.202000
0
LINE
8
Layer 1
10
245.760000
20
200.202000
11
253.952000
21
200.202000
0
LINE
8
Layer 1
10
253.952000
20
200.202000
11
258.048000
21
200.202000
0
LINE
8
Layer 1
10
258.048000
20
200.202000
11
258.102000
21
200.202000
0
LINE
8
Layer 1
10
258.102000
20
200.202000
11
258.560000
21
200.191000
0
LINE
8
Layer 1
10
258.560000
20
200.191000
11
258.572000
21
200.191000
0
LINE
8
Layer 1
10
258.572000
20
200.191000
11
259.040000
21
200.160000
0
LINE
8
Layer 1
10
259.040000
20
200.160000
11
259.072000
21
200.156000
0
LINE
8
Layer 1
10
259.072000
20
200.156000
11
259.502000
21
200.108000
0
LINE
8
Layer 1
10
259.502000
20
200.108000
11
259.955000
21
200.035000
0
LINE
8
Layer 1
10
259.955000
20
200.035000
11
260.096000
21
200.005000
0
LINE
8
Layer 1
10
260.096000
20
200.005000
11
260.121000
21
200.000000
0
LINE
8
Layer 1
10
260.121000
20
200.000000
11
260.397000
21
199.942000
0
LINE
8
Layer 1
10
260.397000
20
199.942000
11
260.608000
21
199.887000
0
LINE
8
Layer 1
10
260.608000
20
199.887000
11
260.825000
21
199.830000
0
LINE
8
Layer 1
10
260.825000
20
199.830000
11
261.120000
21
199.736000
0
LINE
8
Layer 1
10
261.120000
20
199.736000
11
261.236000
21
199.699000
0
LINE
8
Layer 1
10
261.236000
20
199.699000
11
261.627000
21
199.550000
0
LINE
8
Layer 1
10
261.627000
20
199.550000
11
261.765000
21
199.488000
0
LINE
8
Layer 1
10
261.765000
20
199.488000
11
261.997000
21
199.384000
0
LINE
8
Layer 1
10
261.997000
20
199.384000
11
262.144000
21
199.307000
0
LINE
8
Layer 1
10
262.144000
20
199.307000
11
262.343000
21
199.202000
0
LINE
8
Layer 1
10
262.343000
20
199.202000
11
262.663000
21
199.005000
0
LINE
8
Layer 1
10
262.663000
20
199.005000
11
262.703000
21
198.976000
0
LINE
8
Layer 1
10
262.703000
20
198.976000
11
262.954000
21
198.795000
0
LINE
8
Layer 1
10
262.954000
20
198.795000
11
263.168000
21
198.613000
0
LINE
8
Layer 1
10
263.168000
20
198.613000
11
263.216000
21
198.572000
0
LINE
8
Layer 1
10
263.216000
20
198.572000
11
263.322000
21
198.464000
0
LINE
8
Layer 1
10
263.322000
20
198.464000
11
263.446000
21
198.338000
0
LINE
8
Layer 1
10
263.446000
20
198.338000
11
263.643000
21
198.095000
0
LINE
8
Layer 1
10
263.643000
20
198.095000
11
263.680000
21
198.038000
0
LINE
8
Layer 1
10
263.680000
20
198.038000
11
263.736000
21
197.952000
0
LINE
8
Layer 1
10
263.736000
20
197.952000
11
263.806000
21
197.843000
0
LINE
8
Layer 1
10
263.806000
20
197.843000
11
263.934000
21
197.585000
0
LINE
8
Layer 1
10
263.934000
20
197.585000
11
263.985000
21
197.440000
0
LINE
8
Layer 1
10
263.985000
20
197.440000
11
264.026000
21
197.322000
0
LINE
8
Layer 1
10
264.026000
20
197.322000
11
264.082000
21
197.056000
0
LINE
8
Layer 1
10
264.082000
20
197.056000
11
264.091000
21
196.928000
0
LINE
8
Layer 1
10
264.091000
20
196.928000
11
264.100000
21
196.788000
0
LINE
8
Layer 1
10
264.100000
20
196.788000
11
264.100000
21
196.416000
0
LINE
8
Layer 1
10
264.100000
20
196.416000
11
264.100000
21
195.904000
0
LINE
8
Layer 1
10
264.100000
20
195.904000
11
264.100000
21
194.880000
0
LINE
8
Layer 1
10
264.100000
20
194.880000
11
264.100000
21
193.856000
0
LINE
8
Layer 1
10
264.100000
20
193.856000
11
264.100000
21
192.832000
0
LINE
8
Layer 1
10
264.100000
20
192.832000
11
264.100000
21
191.808000
0
LINE
8
Layer 1
10
264.100000
20
191.808000
11
264.100000
21
190.784000
0
LINE
8
Layer 1
10
264.100000
20
190.784000
11
264.100000
21
189.760000
0
LINE
8
Layer 1
10
264.100000
20
189.760000
11
264.100000
21
188.736000
0
LINE
8
Layer 1
10
264.100000
20
188.736000
11
264.100000
21
187.712000
0
LINE
8
Layer 1
10
264.100000
20
187.712000
11
264.100000
21
186.688000
0
LINE
8
Layer 1
10
264.100000
20
186.688000
11
264.100000
21
185.664000
0
LINE
8
Layer 1
10
264.100000
20
185.664000
11
264.100000
21
184.640000
0
LINE
8
Layer 1
10
264.100000
20
184.640000
11
264.100000
21
183.616000
0
LINE
8
Layer 1
10
264.100000
20
183.616000
11
264.100000
21
182.592000
0
LINE
8
Layer 1
10
264.100000
20
182.592000
11
264.100000
21
181.568000
0
LINE
8
Layer 1
10
264.100000
20
181.568000
11
264.100000
21
180.544000
0
LINE
8
Layer 1
10
264.100000
20
180.544000
11
264.100000
21
179.520000
0
LINE
8
Layer 1
10
264.100000
20
179.520000
11
264.100000
21
178.496000
0
LINE
8
Layer 1
10
264.100000
20
178.496000
11
264.100000
21
177.472000
0
LINE
8
Layer 1
10
264.100000
20
177.472000
11
264.100000
21
176.448000
0
LINE
8
Layer 1
10
264.100000
20
176.448000
11
264.100000
21
175.424000
0
LINE
8
Layer 1
10
264.100000
20
175.424000
11
264.100000
21
174.400000
0
LINE
8
Layer 1
10
264.100000
20
174.400000
11
264.100000
21
173.376000
0
LINE
8
Layer 1
10
264.100000
20
173.376000
11
264.100000
21
172.352000
0
LINE
8
Layer 1
10
264.100000
20
172.352000
11
264.100000
21
171.328000
0
LINE
8
Layer 1
10
264.100000
20
171.328000
11
264.100000
21
170.304000
0
LINE
8
Layer 1
10
264.100000
20
170.304000
11
264.100000
21
169.280000
0
LINE
8
Layer 1
10
264.100000
20
169.280000
11
264.100000
21
168.256000
0
LINE
8
Layer 1
10
264.100000
20
168.256000
11
264.100000
21
167.232000
0
LINE
8
Layer 1
10
264.100000
20
167.232000
11
264.100000
21
166.208000
0
LINE
8
Layer 1
10
264.100000
20
166.208000
11
264.100000
21
165.184000
0
LINE
8
Layer 1
10
264.100000
20
165.184000
11
264.100000
21
164.160000
0
LINE
8
Layer 1
10
264.100000
20
164.160000
11
264.100000
21
163.136000
0
LINE
8
Layer 1
10
264.100000
20
163.136000
11
264.100000
21
162.112000
0
LINE
8
Layer 1
10
264.100000
20
162.112000
11
264.100000
21
161.088000
0
LINE
8
Layer 1
10
264.100000
20
161.088000
11
264.100000
21
160.064000
0
LINE
8
Layer 1
10
264.100000
20
160.064000
11
264.100000
21
159.040000
0
LINE
8
Layer 1
10
264.100000
20
159.040000
11
264.100000
21
158.016000
0
LINE
8
Layer 1
10
264.100000
20
158.016000
11
264.100000
21
157.100000
0
LINE
8
Layer 1
10
264.100000
20
157.100000
11
264.100000
21
156.992000
0
LINE
8
Layer 1
10
264.100000
20
156.992000
11
264.100000
21
155.968000
0
LINE
8
Layer 1
10
264.100000
20
155.968000
11
264.100000
21
154.944000
0
LINE
8
Layer 1
10
264.100000
20
154.944000
11
264.100000
21
153.920000
0
LINE
8
Layer 1
10
264.100000
20
153.920000
11
264.100000
21
152.896000
0
LINE
8
Layer 1
10
264.100000
20
152.896000
11
264.100000
21
151.872000
0
LINE
8
Layer 1
10
264.100000
20
151.872000
11
264.100000
21
150.848000
0
LINE
8
Layer 1
10
264.100000
20
150.848000
11
264.100000
21
149.824000
0
LINE
8
Layer 1
10
264.100000
20
149.824000
11
264.100000
21
148.800000
0
LINE
8
Layer 1
10
264.100000
20
148.800000
11
264.100000
21
147.776000
0
LINE
8
Layer 1
10
264.100000
20
147.776000
11
264.100000
21
146.752000
0
LINE
8
Layer 1
10
264.100000
20
146.752000
11
264.100000
21
145.728000
0
LINE
8
Layer 1
10
264.100000
20
145.728000
11
264.100000
21
144.704000
0
LINE
8
Layer 1
10
264.100000
20
144.704000
11
264.100000
21
143.680000
0
LINE
8
Layer 1
10
264.100000
20
143.680000
11
264.100000
21
142.656000
0
LINE
8
Layer 1
10
264.100000
20
142.656000
11
264.100000
21
141.632000
0
LINE
8
Layer 1
10
264.100000
20
141.632000
11
264.100000
21
140.608000
0
LINE
8
Layer 1
10
264.100000
20
140.608000
11
264.100000
21
139.584000
0
LINE
8
Layer 1
10
264.100000
20
139.584000
11
264.100000
21
138.560000
0
LINE
8
Layer 1
10
264.100000
20
138.560000
11
264.100000
21
137.536000
0
LINE
8
Layer 1
10
264.100000
20
137.536000
11
264.100000
21
136.512000
0
LINE
8
Layer 1
10
264.100000
20
136.512000
11
264.100000
21
135.488000
0
LINE
8
Layer 1
10
264.100000
20
135.488000
11
264.100000
21
134.464000
0
LINE
8
Layer 1
10
264.100000
20
134.464000
11
264.100000
21
133.440000
0
LINE
8
Layer 1
10
264.100000
20
133.440000
11
264.100000
21
132.416000
0
LINE
8
Layer 1
10
264.100000
20
132.416000
11
264.100000
21
131.392000
0
LINE
8
Layer 1
10
264.100000
20
131.392000
11
264.100000
21
130.368000
0
LINE
8
Layer 1
10
264.100000
20
130.368000
11
264.100000
21
129.344000
0
LINE
8
Layer 1
10
264.100000
20
129.344000
11
264.100000
21
128.320000
0
LINE
8
Layer 1
10
264.100000
20
128.320000
11
264.100000
21
127.296000
0
LINE
8
Layer 1
10
264.100000
20
127.296000
11
264.100000
21
126.272000
0
LINE
8
Layer 1
10
264.100000
20
126.272000
11
264.100000
21
125.248000
0
LINE
8
Layer 1
10
264.100000
20
125.248000
11
264.100000
21
124.224000
0
LINE
8
Layer 1
10
264.100000
20
124.224000
11
264.100000
21
123.200000
0
LINE
8
Layer 1
10
264.100000
20
123.200000
11
264.100000
21
122.176000
0
LINE
8
Layer 1
10
264.100000
20
122.176000
11
264.100000
21
121.152000
0
LINE
8
Layer 1
10
264.100000
20
121.152000
11
264.100000
21
120.128000
0
LINE
8
Layer 1
10
264.100000
20
120.128000
11
264.100000
21
119.104000
0
LINE
8
Layer 1
10
264.100000
20
119.104000
11
264.100000
21
118.080000
0
LINE
8
Layer 1
10
264.100000
20
118.080000
11
264.100000
21
117.100000
0
LINE
8
Layer 1
10
264.100000
20
117.100000
11
264.100000
21
117.056000
0
LINE
8
Layer 1
10
264.100000
20
117.056000
11
264.100000
21
116.032000
0
LINE
8
Layer 1
10
264.100000
20
116.032000
11
264.100000
21
115.008000
0
LINE
8
Layer 1
10
264.100000
20
115.008000
11
264.100000
21
113.984000
0
LINE
8
Layer 1
10
264.100000
20
113.984000
11
264.100000
21
112.960000
0
LINE
8
Layer 1
10
264.100000
20
112.960000
11
264.100000
21
111.936000
0
LINE
8
Layer 1
10
264.100000
20
111.936000
11
264.100000
21
110.912000
0
LINE
8
Layer 1
10
264.100000
20
110.912000
11
264.100000
21
109.888000
0
LINE
8
Layer 1
10
264.100000
20
109.888000
11
264.100000
21
108.864000
0
LINE
8
Layer 1
10
264.100000
20
108.864000
11
264.100000
21
107.840000
0
LINE
8
Layer 1
10
264.100000
20
107.840000
11
264.100000
21
106.816000
0
LINE
8
Layer 1
10
264.100000
20
106.816000
11
264.100000
21
105.792000
0
LINE
8
Layer 1
10
264.100000
20
105.792000
11
264.100000
21
104.768000
0
LINE
8
Layer 1
10
264.100000
20
104.768000
11
264.100000
21
103.744000
0
LINE
8
Layer 1
10
264.100000
20
103.744000
11
264.100000
21
102.720000
0
LINE
8
Layer 1
10
264.100000
20
102.720000
11
264.100000
21
101.696000
0
LINE
8
Layer 1
10
264.100000
20
101.696000
11
264.100000
21
100.672000
0
LINE
8
Layer 1
10
264.100000
20
100.672000
11
264.100000
21
99.648000
0
LINE
8
Layer 1
10
264.100000
20
99.648000
11
264.100000
21
98.624000
0
LINE
8
Layer 1
10
264.100000
20
98.624000
11
264.100000
21
97.600000
0
LINE
8
Layer 1
10
264.100000
20
97.600000
11
264.100000
21
96.576000
0
LINE
8
Layer 1
10
264.100000
20
96.576000
11
264.100000
21
95.552000
0
LINE
8
Layer 1
10
264.100000
20
95.552000
11
264.100000
21
94.528000
0
LINE
8
Layer 1
10
264.100000
20
94.528000
11
264.100000
21
93.504000
0
LINE
8
Layer 1
10
264.100000
20
93.504000
11
264.100000
21
92.480000
0
LINE
8
Layer 1
10
264.100000
20
92.480000
11
264.100000
21
91.456000
0
LINE
8
Layer 1
10
264.100000
20
91.456000
11
264.100000
21
90.432000
0
LINE
8
Layer 1
10
264.100000
20
90.432000
11
264.100000
21
89.408000
0
LINE
8
Layer 1
10
264.100000
20
89.408000
11
264.100000
21
88.384000
0
LINE
8
Layer 1
10
264.100000
20
88.384000
11
264.100000
21
87.360000
0
LINE
8
Layer 1
10
264.100000
20
87.360000
11
264.100000
21
86.336000
0
LINE
8
Layer 1
10
264.100000
20
86.336000
11
264.100000
21
85.312000
0
LINE
8
Layer 1
10
264.100000
20
85.312000
11
264.100000
21
84.288000
0
LINE
8
Layer 1
10
264.100000
20
84.288000
11
264.100000
21
83.264000
0
LINE
8
Layer 1
10
264.100000
20
83.264000
11
264.100000
21
82.240000
0
LINE
8
Layer 1
10
264.100000
20
82.240000
11
264.100000
21
81.216000
0
LINE
8
Layer 1
10
264.100000
20
81.216000
11
264.100000
21
80.192000
0
LINE
8
Layer 1
10
264.100000
20
80.192000
11
264.100000
21
79.168000
0
LINE
8
Layer 1
10
264.100000
20
79.168000
11
264.100000
21
78.144000
0
LINE
8
Layer 1
10
264.100000
20
78.144000
11
264.100000
21
77.120000
0
LINE
8
Layer 1
10
264.100000
20
77.120000
11
264.100000
21
76.096000
0
LINE
8
Layer 1
10
264.100000
20
76.096000
11
264.100000
21
75.072000
0
LINE
8
Layer 1
10
264.100000
20
75.072000
11
264.100000
21
74.048000
0
LINE
8
Layer 1
10
264.100000
20
74.048000
11
264.100000
21
73.024000
0
LINE
8
Layer 1
10
264.100000
20
73.024000
11
264.100000
21
72.000000
0
LINE
8
Layer 1
10
264.100000
20
72.000000
11
264.100000
21
70.976000
0
LINE
8
Layer 1
10
264.100000
20
70.976000
11
264.100000
21
69.952000
0
LINE
8
Layer 1
10
264.100000
20
69.952000
11
264.100000
21
68.928000
0
LINE
8
Layer 1
10
264.100000
20
68.928000
11
264.100000
21
67.904000
0
LINE
8
Layer 1
10
264.100000
20
67.904000
11
264.100000
21
66.880000
0
LINE
8
Layer 1
10
264.100000
20
66.880000
11
264.100000
21
65.856000
0
LINE
8
Layer 1
10
264.100000
20
65.856000
11
264.100000
21
64.832000
0
LINE
8
Layer 1
10
264.100000
20
64.832000
11
264.100000
21
63.808000
0
LINE
8
Layer 1
10
264.100000
20
63.808000
11
264.100000
21
62.784000
0
LINE
8
Layer 1
10
264.100000
20
62.784000
11
264.100000
21
61.760000
0
LINE
8
Layer 1
10
264.100000
20
61.760000
11
264.100000
21
60.736000
0
LINE
8
Layer 1
10
264.100000
20
60.736000
11
264.100000
21
59.712000
0
LINE
8
Layer 1
10
264.100000
20
59.712000
11
264.100000
21
58.688000
0
LINE
8
Layer 1
10
264.100000
20
58.688000
11
264.100000
21
57.664000
0
LINE
8
Layer 1
10
264.100000
20
57.664000
11
264.100000
21
56.640000
0
LINE
8
Layer 1
10
264.100000
20
56.640000
11
264.100000
21
55.616000
0
LINE
8
Layer 1
10
264.100000
20
55.616000
11
264.100000
21
54.592000
0
LINE
8
Layer 1
10
264.100000
20
54.592000
11
264.100000
21
53.568000
0
LINE
8
Layer 1
10
264.100000
20
53.568000
11
264.100000
21
52.544000
0
LINE
8
Layer 1
10
264.100000
20
52.544000
11
264.100000
21
51.520000
0
LINE
8
Layer 1
10
264.100000
20
51.520000
11
264.100000
21
50.496000
0
LINE
8
Layer 1
10
264.100000
20
50.496000
11
264.100000
21
49.472000
0
LINE
8
Layer 1
10
264.100000
20
49.472000
11
264.100000
21
48.448000
0
LINE
8
Layer 1
10
264.100000
20
48.448000
11
264.100000
21
47.424000
0
LINE
8
Layer 1
10
264.100000
20
47.424000
11
264.100000
21
46.400000
0
LINE
8
Layer 1
10
264.100000
20
46.400000
11
264.100000
21
45.376000
0
LINE
8
Layer 1
10
264.100000
20
45.376000
11
264.100000
21
44.352000
0
LINE
8
Layer 1
10
264.100000
20
44.352000
11
264.100000
21
43.328000
0
LINE
8
Layer 1
10
264.100000
20
43.328000
11
264.100000
21
42.304000
0
LINE
8
Layer 1
10
264.100000
20
42.304000
11
264.100000
21
41.280000
0
LINE
8
Layer 1
10
264.100000
20
41.280000
11
264.100000
21
40.256000
0
LINE
8
Layer 1
10
264.100000
20
40.256000
11
264.100000
21
39.232000
0
LINE
8
Layer 1
10
264.100000
20
39.232000
11
264.100000
21
38.208000
0
LINE
8
Layer 1
10
264.100000
20
38.208000
11
264.100000
21
37.184000
0
LINE
8
Layer 1
10
264.100000
20
37.184000
11
264.100000
21
36.160000
0
LINE
8
Layer 1
10
264.100000
20
36.160000
11
264.100000
21
35.136000
0
LINE
8
Layer 1
10
264.100000
20
35.136000
11
264.100000
21
34.112000
0
LINE
8
Layer 1
10
264.100000
20
34.112000
11
264.100000
21
33.088000
0
LINE
8
Layer 1
10
264.100000
20
33.088000
11
264.100000
21
32.064000
0
LINE
8
Layer 1
10
264.100000
20
32.064000
11
264.100000
21
31.040000
0
LINE
8
Layer 1
10
264.100000
20
31.040000
11
264.100000
21
30.016000
0
LINE
8
Layer 1
10
264.100000
20
30.016000
11
264.100000
21
28.992000
0
LINE
8
Layer 1
10
264.100000
20
28.992000
11
264.100000
21
27.968000
0
LINE
8
Layer 1
10
264.100000
20
27.968000
11
264.100000
21
26.944000
0
LINE
8
Layer 1
10
264.100000
20
26.944000
11
264.100000
21
25.920000
0
LINE
8
Layer 1
10
264.100000
20
25.920000
11
264.100000
21
24.896000
0
LINE
8
Layer 1
10
264.100000
20
24.896000
11
264.100000
21
23.872000
0
LINE
8
Layer 1
10
264.100000
20
23.872000
11
264.100000
21
22.848000
0
LINE
8
Layer 1
10
264.100000
20
22.848000
11
264.100000
21
21.824000
0
LINE
8
Layer 1
10
264.100000
20
21.824000
11
264.100000
21
20.800000
0
LINE
8
Layer 1
10
264.100000
20
20.800000
11
264.100000
21
19.776000
0
LINE
8
Layer 1
10
264.100000
20
19.776000
11
264.100000
21
18.752000
0
LINE
8
Layer 1
10
264.100000
20
18.752000
11
264.100000
21
17.728000
0
LINE
8
Layer 1
10
264.100000
20
17.728000
11
264.100000
21
16.704000
0
LINE
8
Layer 1
10
264.100000
20
16.704000
11
264.100000
21
15.680000
0
LINE
8
Layer 1
10
264.100000
20
15.680000
11
264.100000
21
14.656000
0
LINE
8
Layer 1
10
264.100000
20
14.656000
11
264.100000
21
13.632000
0
LINE
8
Layer 1
10
264.100000
20
13.632000
11
264.100000
21
12.608000
0
LINE
8
Layer 1
10
264.100000
20
12.608000
11
264.100000
21
11.584000
0
LINE
8
Layer 1
10
264.100000
20
11.584000
11
264.100000
21
10.560000
0
LINE
8
Layer 1
10
264.100000
20
10.560000
11
264.100000
21
9.536000
0
LINE
8
Layer 1
10
264.100000
20
9.536000
11
264.100000
21
8.511990
0
LINE
8
Layer 1
10
264.100000
20
8.511990
11
264.100000
21
7.488010
0
LINE
8
Layer 1
10
264.100000
20
7.488010
11
264.100000
21
6.464000
0
LINE
8
Layer 1
10
264.100000
20
6.464000
11
264.100000
21
5.952000
0
LINE
8
Layer 1
10
264.100000
20
5.952000
11
264.100000
21
5.616000
0
LINE
8
Layer 1
10
201.427000
20
109.888000
11
202.015000
21
110.324000
0
LINE
8
Layer 1
10
202.015000
20
110.324000
11
202.887000
21
111.115000
0
LINE
8
Layer 1
10
202.887000
20
111.115000
11
203.678000
21
111.987000
0
LINE
8
Layer 1
10
203.678000
20
111.987000
11
204.380000
21
112.933000
0
LINE
8
Layer 1
10
204.380000
20
112.933000
11
204.800000
21
113.634000
0
LINE
8
Layer 1
10
204.800000
20
113.634000
11
204.985000
21
113.943000
0
LINE
8
Layer 1
10
204.985000
20
113.943000
11
205.489000
21
115.008000
0
LINE
8
Layer 1
10
205.489000
20
115.008000
11
205.885000
21
116.117000
0
LINE
8
Layer 1
10
205.885000
20
116.117000
11
206.131000
21
117.100000
0
LINE
8
Layer 1
10
206.131000
20
117.100000
11
206.171000
21
117.259000
0
LINE
8
Layer 1
10
206.171000
20
117.259000
11
206.293000
21
118.080000
0
LINE
8
Layer 1
10
206.293000
20
118.080000
11
206.344000
21
118.424000
0
LINE
8
Layer 1
10
206.344000
20
118.424000
11
206.402000
21
119.600000
0
LINE
8
Layer 1
10
206.402000
20
119.600000
11
206.344000
21
120.776000
0
LINE
8
Layer 1
10
206.344000
20
120.776000
11
206.171000
21
121.941000
0
LINE
8
Layer 1
10
206.171000
20
121.941000
11
205.885000
21
123.083000
0
LINE
8
Layer 1
10
205.885000
20
123.083000
11
205.489000
21
124.192000
0
LINE
8
Layer 1
10
205.489000
20
124.192000
11
204.985000
21
125.257000
0
LINE
8
Layer 1
10
204.985000
20
125.257000
11
204.800000
21
125.566000
0
LINE
8
Layer 1
10
204.800000
20
125.566000
11
204.380000
21
126.267000
0
LINE
8
Layer 1
10
204.380000
20
126.267000
11
204.376000
21
126.272000
0
LINE
8
Layer 1
10
204.376000
20
126.272000
11
203.678000
21
127.213000
0
LINE
8
Layer 1
10
203.678000
20
127.213000
11
202.887000
21
128.085000
0
LINE
8
Layer 1
10
202.887000
20
128.085000
11
202.015000
21
128.876000
0
LINE
8
Layer 1
10
202.015000
20
128.876000
11
201.069000
21
129.578000
0
LINE
8
Layer 1
10
201.069000
20
129.578000
11
200.059000
21
130.183000
0
LINE
8
Layer 1
10
200.059000
20
130.183000
11
198.994000
21
130.687000
0
LINE
8
Layer 1
10
198.994000
20
130.687000
11
197.885000
21
131.083000
0
LINE
8
Layer 1
10
197.885000
20
131.083000
11
196.743000
21
131.370000
0
LINE
8
Layer 1
10
196.743000
20
131.370000
11
196.608000
21
131.390000
0
LINE
8
Layer 1
10
196.608000
20
131.390000
11
195.578000
21
131.543000
0
LINE
8
Layer 1
10
195.578000
20
131.543000
11
194.402000
21
131.601000
0
LINE
8
Layer 1
10
194.402000
20
131.601000
11
193.226000
21
131.543000
0
LINE
8
Layer 1
10
193.226000
20
131.543000
11
192.061000
21
131.370000
0
LINE
8
Layer 1
10
192.061000
20
131.370000
11
190.919000
21
131.083000
0
LINE
8
Layer 1
10
190.919000
20
131.083000
11
189.810000
21
130.687000
0
LINE
8
Layer 1
10
189.810000
20
130.687000
11
188.745000
21
130.183000
0
LINE
8
Layer 1
10
188.745000
20
130.183000
11
188.416000
21
129.986000
0
LINE
8
Layer 1
10
188.416000
20
129.986000
11
187.735000
21
129.578000
0
LINE
8
Layer 1
10
187.735000
20
129.578000
11
186.789000
21
128.876000
0
LINE
8
Layer 1
10
186.789000
20
128.876000
11
185.917000
21
128.085000
0
LINE
8
Layer 1
10
185.917000
20
128.085000
11
185.126000
21
127.213000
0
LINE
8
Layer 1
10
185.126000
20
127.213000
11
184.428000
21
126.272000
0
LINE
8
Layer 1
10
184.428000
20
126.272000
11
184.424000
21
126.267000
0
LINE
8
Layer 1
10
184.424000
20
126.267000
11
183.819000
21
125.257000
0
LINE
8
Layer 1
10
183.819000
20
125.257000
11
183.315000
21
124.192000
0
LINE
8
Layer 1
10
183.315000
20
124.192000
11
182.919000
21
123.083000
0
LINE
8
Layer 1
10
182.919000
20
123.083000
11
182.633000
21
121.941000
0
LINE
8
Layer 1
10
182.633000
20
121.941000
11
182.460000
21
120.776000
0
LINE
8
Layer 1
10
182.460000
20
120.776000
11
182.402000
21
119.600000
0
LINE
8
Layer 1
10
182.402000
20
119.600000
11
182.460000
21
118.424000
0
LINE
8
Layer 1
10
182.460000
20
118.424000
11
182.511000
21
118.080000
0
LINE
8
Layer 1
10
182.511000
20
118.080000
11
182.633000
21
117.259000
0
LINE
8
Layer 1
10
182.633000
20
117.259000
11
182.673000
21
117.100000
0
LINE
8
Layer 1
10
182.673000
20
117.100000
11
182.919000
21
116.117000
0
LINE
8
Layer 1
10
182.919000
20
116.117000
11
183.315000
21
115.008000
0
LINE
8
Layer 1
10
183.315000
20
115.008000
11
183.819000
21
113.943000
0
LINE
8
Layer 1
10
183.819000
20
113.943000
11
184.424000
21
112.933000
0
LINE
8
Layer 1
10
184.424000
20
112.933000
11
185.126000
21
111.987000
0
LINE
8
Layer 1
10
185.126000
20
111.987000
11
185.917000
21
111.115000
0
LINE
8
Layer 1
10
185.917000
20
111.115000
11
186.789000
21
110.324000
0
LINE
8
Layer 1
10
186.789000
20
110.324000
11
187.377000
21
109.888000
0
LINE
8
Layer 1
10
187.377000
20
109.888000
11
187.735000
21
109.622000
0
LINE
8
Layer 1
10
187.735000
20
109.622000
11
188.416000
21
109.214000
0
LINE
8
Layer 1
10
188.416000
20
109.214000
11
188.745000
21
109.017000
0
LINE
8
Layer 1
10
188.745000
20
109.017000
11
189.810000
21
108.513000
0
LINE
8
Layer 1
10
189.810000
20
108.513000
11
190.919000
21
108.117000
0
LINE
8
Layer 1
10
190.919000
20
108.117000
11
192.061000
21
107.831000
0
LINE
8
Layer 1
10
192.061000
20
107.831000
11
193.226000
21
107.658000
0
LINE
8
Layer 1
10
193.226000
20
107.658000
11
194.402000
21
107.599000
0
LINE
8
Layer 1
10
194.402000
20
107.599000
11
195.578000
21
107.658000
0
LINE
8
Layer 1
10
195.578000
20
107.658000
11
196.608000
21
107.811000
0
LINE
8
Layer 1
10
196.608000
20
107.811000
11
196.743000
21
107.831000
0
LINE
8
Layer 1
10
196.743000
20
107.831000
11
197.885000
21
108.117000
0
LINE
8
Layer 1
10
197.885000
20
108.117000
11
198.994000
21
108.513000
0
LINE
8
Layer 1
10
198.994000
20
108.513000
11
200.059000
21
109.017000
0
LINE
8
Layer 1
10
200.059000
20
109.017000
11
201.069000
21
109.622000
0
LINE
8
Layer 1
10
201.069000
20
109.622000
11
201.427000
21
109.888000
0
LINE
8
Layer 1
10
254.481000
20
13.104000
11
253.952000
21
12.834800
0
LINE
8
Layer 1
10
253.952000
20
12.834800
11
253.923000
21
12.820000
0
LINE
8
Layer 1
10
253.923000
20
12.820000
11
253.480000
21
12.377000
0
LINE
8
Layer 1
10
253.480000
20
12.377000
11
253.196000
21
11.819000
0
LINE
8
Layer 1
10
253.196000
20
11.819000
11
253.159000
21
11.584000
0
LINE
8
Layer 1
10
253.159000
20
11.584000
11
253.098000
21
11.200000
0
LINE
8
Layer 1
10
253.098000
20
11.200000
11
253.196000
21
10.581000
0
LINE
8
Layer 1
10
253.196000
20
10.581000
11
253.480000
21
10.023000
0
LINE
8
Layer 1
10
253.480000
20
10.023000
11
253.923000
21
9.580000
0
LINE
8
Layer 1
10
253.923000
20
9.580000
11
253.952000
21
9.565190
0
LINE
8
Layer 1
10
253.952000
20
9.565190
11
254.481000
21
9.295000
0
LINE
8
Layer 1
10
254.481000
20
9.295000
11
255.100000
21
9.197010
0
LINE
8
Layer 1
10
255.100000
20
9.197010
11
255.719000
21
9.295000
0
LINE
8
Layer 1
10
255.719000
20
9.295000
11
256.277000
21
9.580000
0
LINE
8
Layer 1
10
256.277000
20
9.580000
11
256.720000
21
10.023000
0
LINE
8
Layer 1
10
256.720000
20
10.023000
11
257.004000
21
10.581000
0
LINE
8
Layer 1
10
257.004000
20
10.581000
11
257.103000
21
11.200000
0
LINE
8
Layer 1
10
257.103000
20
11.200000
11
257.042000
21
11.584000
0
LINE
8
Layer 1
10
257.042000
20
11.584000
11
257.004000
21
11.819000
0
LINE
8
Layer 1
10
257.004000
20
11.819000
11
256.720000
21
12.377000
0
LINE
8
Layer 1
10
256.720000
20
12.377000
11
256.277000
21
12.820000
0
LINE
8
Layer 1
10
256.277000
20
12.820000
11
255.719000
21
13.104000
0
LINE
8
Layer 1
10
255.719000
20
13.104000
11
255.100000
21
13.202000
0
LINE
8
Layer 1
10
255.100000
20
13.202000
11
254.481000
21
13.104000
0
LINE
8
Layer 1
10
74.887000
20
75.372000
11
75.245000
21
73.944000
0
LINE
8
Layer 1
10
75.245000
20
73.944000
11
75.741000
21
72.558000
0
LINE
8
Layer 1
10
75.741000
20
72.558000
11
76.370000
21
71.227000
0
LINE
8
Layer 1
10
76.370000
20
71.227000
11
77.127000
21
69.964000
0
LINE
8
Layer 1
10
77.127000
20
69.964000
11
77.895700
21
68.928000
0
LINE
8
Layer 1
10
77.895700
20
68.928000
11
78.004000
21
68.782000
0
LINE
8
Layer 1
10
78.004000
20
68.782000
11
78.992000
21
67.691000
0
LINE
8
Layer 1
10
78.992000
20
67.691000
11
80.083000
21
66.703000
0
LINE
8
Layer 1
10
80.083000
20
66.703000
11
81.265000
21
65.826000
0
LINE
8
Layer 1
10
81.265000
20
65.826000
11
81.920000
21
65.433400
0
LINE
8
Layer 1
10
81.920000
20
65.433400
11
82.528000
21
65.069000
0
LINE
8
Layer 1
10
82.528000
20
65.069000
11
83.029500
21
64.832000
0
LINE
8
Layer 1
10
83.029500
20
64.832000
11
83.859000
21
64.440000
0
LINE
8
Layer 1
10
83.859000
20
64.440000
11
85.245000
21
63.944000
0
LINE
8
Layer 1
10
85.245000
20
63.944000
11
86.673000
21
63.586000
0
LINE
8
Layer 1
10
86.673000
20
63.586000
11
88.129000
21
63.370000
0
LINE
8
Layer 1
10
88.129000
20
63.370000
11
89.600000
21
63.298000
0
LINE
8
Layer 1
10
89.600000
20
63.298000
11
90.112000
21
63.323100
0
LINE
8
Layer 1
10
90.112000
20
63.323100
11
91.070000
21
63.370000
0
LINE
8
Layer 1
10
91.070000
20
63.370000
11
92.526000
21
63.586000
0
LINE
8
Layer 1
10
92.526000
20
63.586000
11
93.954000
21
63.944000
0
LINE
8
Layer 1
10
93.954000
20
63.944000
11
95.340000
21
64.440000
0
LINE
8
Layer 1
10
95.340000
20
64.440000
11
96.169500
21
64.832000
0
LINE
8
Layer 1
10
96.169500
20
64.832000
11
96.671000
21
65.069000
0
LINE
8
Layer 1
10
96.671000
20
65.069000
11
97.934000
21
65.826000
0
LINE
8
Layer 1
10
97.934000
20
65.826000
11
98.304000
21
66.100500
0
LINE
8
Layer 1
10
98.304000
20
66.100500
11
99.116000
21
66.703000
0
LINE
8
Layer 1
10
99.116000
20
66.703000
11
100.207000
21
67.691000
0
LINE
8
Layer 1
10
100.207000
20
67.691000
11
101.195000
21
68.782000
0
LINE
8
Layer 1
10
101.195000
20
68.782000
11
101.303000
21
68.928000
0
LINE
8
Layer 1
10
101.303000
20
68.928000
11
102.072000
21
69.964000
0
LINE
8
Layer 1
10
102.072000
20
69.964000
11
102.829000
21
71.227000
0
LINE
8
Layer 1
10
102.829000
20
71.227000
11
103.458000
21
72.558000
0
LINE
8
Layer 1
10
103.458000
20
72.558000
11
103.625000
21
73.024000
0
LINE
8
Layer 1
10
103.625000
20
73.024000
11
103.954000
21
73.944000
0
LINE
8
Layer 1
10
103.954000
20
73.944000
11
104.312000
21
75.372000
0
LINE
8
Layer 1
10
104.312000
20
75.372000
11
104.528000
21
76.828000
0
LINE
8
Layer 1
10
104.528000
20
76.828000
11
104.542000
21
77.120000
0
LINE
8
Layer 1
10
104.542000
20
77.120000
11
104.600000
21
78.298000
0
LINE
8
Layer 1
10
104.600000
20
78.298000
11
104.528000
21
79.768000
0
LINE
8
Layer 1
10
104.528000
20
79.768000
11
104.312000
21
81.224000
0
LINE
8
Layer 1
10
104.312000
20
81.224000
11
103.954000
21
82.652000
0
LINE
8
Layer 1
10
103.954000
20
82.652000
11
103.458000
21
84.039000
0
LINE
8
Layer 1
10
103.458000
20
84.039000
11
102.856000
21
85.312000
0
LINE
8
Layer 1
10
102.856000
20
85.312000
11
102.829000
21
85.370000
0
LINE
8
Layer 1
10
102.829000
20
85.370000
11
102.072000
21
86.633000
0
LINE
8
Layer 1
10
102.072000
20
86.633000
11
101.195000
21
87.815000
0
LINE
8
Layer 1
10
101.195000
20
87.815000
11
100.207000
21
88.906000
0
LINE
8
Layer 1
10
100.207000
20
88.906000
11
99.652700
21
89.408000
0
LINE
8
Layer 1
10
99.652700
20
89.408000
11
99.116000
21
89.894000
0
LINE
8
Layer 1
10
99.116000
20
89.894000
11
98.304000
21
90.496500
0
LINE
8
Layer 1
10
98.304000
20
90.496500
11
97.934000
21
90.771000
0
LINE
8
Layer 1
10
97.934000
20
90.771000
11
96.671000
21
91.528000
0
LINE
8
Layer 1
10
96.671000
20
91.528000
11
95.340000
21
92.157000
0
LINE
8
Layer 1
10
95.340000
20
92.157000
11
93.954000
21
92.653000
0
LINE
8
Layer 1
10
93.954000
20
92.653000
11
92.526000
21
93.011000
0
LINE
8
Layer 1
10
92.526000
20
93.011000
11
91.070000
21
93.227000
0
LINE
8
Layer 1
10
91.070000
20
93.227000
11
90.112000
21
93.273900
0
LINE
8
Layer 1
10
90.112000
20
93.273900
11
89.600000
21
93.299000
0
LINE
8
Layer 1
10
89.600000
20
93.299000
11
88.129000
21
93.227000
0
LINE
8
Layer 1
10
88.129000
20
93.227000
11
86.673000
21
93.011000
0
LINE
8
Layer 1
10
86.673000
20
93.011000
11
85.245000
21
92.653000
0
LINE
8
Layer 1
10
85.245000
20
92.653000
11
83.859000
21
92.157000
0
LINE
8
Layer 1
10
83.859000
20
92.157000
11
82.528000
21
91.528000
0
LINE
8
Layer 1
10
82.528000
20
91.528000
11
81.920000
21
91.163600
0
LINE
8
Layer 1
10
81.920000
20
91.163600
11
81.265000
21
90.771000
0
LINE
8
Layer 1
10
81.265000
20
90.771000
11
80.083000
21
89.894000
0
LINE
8
Layer 1
10
80.083000
20
89.894000
11
79.546300
21
89.408000
0
LINE
8
Layer 1
10
79.546300
20
89.408000
11
78.992000
21
88.906000
0
LINE
8
Layer 1
10
78.992000
20
88.906000
11
78.004000
21
87.815000
0
LINE
8
Layer 1
10
78.004000
20
87.815000
11
77.127000
21
86.633000
0
LINE
8
Layer 1
10
77.127000
20
86.633000
11
76.370000
21
85.370000
0
LINE
8
Layer 1
10
76.370000
20
85.370000
11
76.342600
21
85.312000
0
LINE
8
Layer 1
10
76.342600
20
85.312000
11
75.741000
21
84.039000
0
LINE
8
Layer 1
10
75.741000
20
84.039000
11
75.245000
21
82.652000
0
LINE
8
Layer 1
10
75.245000
20
82.652000
11
74.887000
21
81.224000
0
LINE
8
Layer 1
10
74.887000
20
81.224000
11
74.671000
21
79.768000
0
LINE
8
Layer 1
10
74.671000
20
79.768000
11
74.599000
21
78.298000
0
LINE
8
Layer 1
10
74.599000
20
78.298000
11
74.656700
21
77.120000
0
LINE
8
Layer 1
10
74.656700
20
77.120000
11
74.671000
21
76.828000
0
LINE
8
Layer 1
10
74.671000
20
76.828000
11
74.887000
21
75.372000
0
LINE
8
Layer 1
10
111.776000
20
101.457000
11
112.941000
21
101.630000
0
LINE
8
Layer 1
10
112.941000
20
101.630000
11
113.205000
21
101.696000
0
LINE
8
Layer 1
10
113.205000
20
101.696000
11
114.083000
21
101.916000
0
LINE
8
Layer 1
10
114.083000
20
101.916000
11
114.688000
21
102.132000
0
LINE
8
Layer 1
10
114.688000
20
102.132000
11
115.192000
21
102.312000
0
LINE
8
Layer 1
10
115.192000
20
102.312000
11
116.257000
21
102.816000
0
LINE
8
Layer 1
10
116.257000
20
102.816000
11
117.267000
21
103.421000
0
LINE
8
Layer 1
10
117.267000
20
103.421000
11
118.213000
21
104.123000
0
LINE
8
Layer 1
10
118.213000
20
104.123000
11
119.085000
21
104.914000
0
LINE
8
Layer 1
10
119.085000
20
104.914000
11
119.876000
21
105.786000
0
LINE
8
Layer 1
10
119.876000
20
105.786000
11
120.578000
21
106.732000
0
LINE
8
Layer 1
10
120.578000
20
106.732000
11
121.183000
21
107.743000
0
LINE
8
Layer 1
10
121.183000
20
107.743000
11
121.687000
21
108.808000
0
LINE
8
Layer 1
10
121.687000
20
108.808000
11
122.073000
21
109.888000
0
LINE
8
Layer 1
10
122.073000
20
109.888000
11
122.083000
21
109.917000
0
LINE
8
Layer 1
10
122.083000
20
109.917000
11
122.369000
21
111.059000
0
LINE
8
Layer 1
10
122.369000
20
111.059000
11
122.542000
21
112.224000
0
LINE
8
Layer 1
10
122.542000
20
112.224000
11
122.600000
21
113.400000
0
LINE
8
Layer 1
10
122.600000
20
113.400000
11
122.542000
21
114.576000
0
LINE
8
Layer 1
10
122.542000
20
114.576000
11
122.369000
21
115.741000
0
LINE
8
Layer 1
10
122.369000
20
115.741000
11
122.083000
21
116.883000
0
LINE
8
Layer 1
10
122.083000
20
116.883000
11
122.006000
21
117.100000
0
LINE
8
Layer 1
10
122.006000
20
117.100000
11
121.687000
21
117.992000
0
LINE
8
Layer 1
10
121.687000
20
117.992000
11
121.645000
21
118.080000
0
LINE
8
Layer 1
10
121.645000
20
118.080000
11
121.183000
21
119.057000
0
LINE
8
Layer 1
10
121.183000
20
119.057000
11
120.578000
21
120.067000
0
LINE
8
Layer 1
10
120.578000
20
120.067000
11
119.876000
21
121.013000
0
LINE
8
Layer 1
10
119.876000
20
121.013000
11
119.085000
21
121.885000
0
LINE
8
Layer 1
10
119.085000
20
121.885000
11
118.213000
21
122.676000
0
LINE
8
Layer 1
10
118.213000
20
122.676000
11
117.267000
21
123.378000
0
LINE
8
Layer 1
10
117.267000
20
123.378000
11
116.257000
21
123.983000
0
LINE
8
Layer 1
10
116.257000
20
123.983000
11
115.192000
21
124.487000
0
LINE
8
Layer 1
10
115.192000
20
124.487000
11
114.688000
21
124.667000
0
LINE
8
Layer 1
10
114.688000
20
124.667000
11
114.083000
21
124.883000
0
LINE
8
Layer 1
10
114.083000
20
124.883000
11
112.941000
21
125.169000
0
LINE
8
Layer 1
10
112.941000
20
125.169000
11
111.776000
21
125.342000
0
LINE
8
Layer 1
10
111.776000
20
125.342000
11
110.600000
21
125.400000
0
LINE
8
Layer 1
10
110.600000
20
125.400000
11
109.424000
21
125.342000
0
LINE
8
Layer 1
10
109.424000
20
125.342000
11
108.259000
21
125.169000
0
LINE
8
Layer 1
10
108.259000
20
125.169000
11
107.117000
21
124.883000
0
LINE
8
Layer 1
10
107.117000
20
124.883000
11
106.496000
21
124.661000
0
LINE
8
Layer 1
10
106.496000
20
124.661000
11
106.008000
21
124.487000
0
LINE
8
Layer 1
10
106.008000
20
124.487000
11
104.943000
21
123.983000
0
LINE
8
Layer 1
10
104.943000
20
123.983000
11
103.933000
21
123.378000
0
LINE
8
Layer 1
10
103.933000
20
123.378000
11
102.987000
21
122.676000
0
LINE
8
Layer 1
10
102.987000
20
122.676000
11
102.115000
21
121.885000
0
LINE
8
Layer 1
10
102.115000
20
121.885000
11
101.324000
21
121.013000
0
LINE
8
Layer 1
10
101.324000
20
121.013000
11
100.622000
21
120.067000
0
LINE
8
Layer 1
10
100.622000
20
120.067000
11
100.017000
21
119.057000
0
LINE
8
Layer 1
10
100.017000
20
119.057000
11
99.554600
21
118.080000
0
LINE
8
Layer 1
10
99.554600
20
118.080000
11
99.513000
21
117.992000
0
LINE
8
Layer 1
10
99.513000
20
117.992000
11
99.194500
21
117.100000
0
LINE
8
Layer 1
10
99.194500
20
117.100000
11
99.117000
21
116.883000
0
LINE
8
Layer 1
10
99.117000
20
116.883000
11
98.831000
21
115.741000
0
LINE
8
Layer 1
10
98.831000
20
115.741000
11
98.658000
21
114.576000
0
LINE
8
Layer 1
10
98.658000
20
114.576000
11
98.600000
21
113.400000
0
LINE
8
Layer 1
10
98.600000
20
113.400000
11
98.658000
21
112.224000
0
LINE
8
Layer 1
10
98.658000
20
112.224000
11
98.831000
21
111.059000
0
LINE
8
Layer 1
10
98.831000
20
111.059000
11
99.117000
21
109.917000
0
LINE
8
Layer 1
10
99.117000
20
109.917000
11
99.127400
21
109.888000
0
LINE
8
Layer 1
10
99.127400
20
109.888000
11
99.513000
21
108.808000
0
LINE
8
Layer 1
10
99.513000
20
108.808000
11
100.017000
21
107.743000
0
LINE
8
Layer 1
10
100.017000
20
107.743000
11
100.622000
21
106.732000
0
LINE
8
Layer 1
10
100.622000
20
106.732000
11
101.324000
21
105.786000
0
LINE
8
Layer 1
10
101.324000
20
105.786000
11
102.115000
21
104.914000
0
LINE
8
Layer 1
10
102.115000
20
104.914000
11
102.987000
21
104.123000
0
LINE
8
Layer 1
10
102.987000
20
104.123000
11
103.933000
21
103.421000
0
LINE
8
Layer 1
10
103.933000
20
103.421000
11
104.943000
21
102.816000
0
LINE
8
Layer 1
10
104.943000
20
102.816000
11
106.008000
21
102.312000
0
LINE
8
Layer 1
10
106.008000
20
102.312000
11
106.496000
21
102.138000
0
LINE
8
Layer 1
10
106.496000
20
102.138000
11
107.117000
21
101.916000
0
LINE
8
Layer 1
10
107.117000
20
101.916000
11
107.995000
21
101.696000
0
LINE
8
Layer 1
10
107.995000
20
101.696000
11
108.259000
21
101.630000
0
LINE
8
Layer 1
10
108.259000
20
101.630000
11
109.424000
21
101.457000
0
LINE
8
Layer 1
10
109.424000
20
101.457000
11
110.600000
21
101.399000
0
LINE
8
Layer 1
10
110.600000
20
101.399000
11
111.776000
21
101.457000
0
LINE
8
Layer 1
10
103.196000
20
11.819000
11
103.159000
21
11.584000
0
LINE
8
Layer 1
10
103.159000
20
11.584000
11
103.098000
21
11.200000
0
LINE
8
Layer 1
10
103.098000
20
11.200000
11
103.196000
21
10.581000
0
LINE
8
Layer 1
10
103.196000
20
10.581000
11
103.480000
21
10.023000
0
LINE
8
Layer 1
10
103.480000
20
10.023000
11
103.923000
21
9.580000
0
LINE
8
Layer 1
10
103.923000
20
9.580000
11
104.481000
21
9.295000
0
LINE
8
Layer 1
10
104.481000
20
9.295000
11
105.100000
21
9.197010
0
LINE
8
Layer 1
10
105.100000
20
9.197010
11
105.719000
21
9.295000
0
LINE
8
Layer 1
10
105.719000
20
9.295000
11
106.277000
21
9.580000
0
LINE
8
Layer 1
10
106.277000
20
9.580000
11
106.496000
21
9.799000
0
LINE
8
Layer 1
10
106.496000
20
9.799000
11
106.720000
21
10.023000
0
LINE
8
Layer 1
10
106.720000
20
10.023000
11
107.004000
21
10.581000
0
LINE
8
Layer 1
10
107.004000
20
10.581000
11
107.103000
21
11.200000
0
LINE
8
Layer 1
10
107.103000
20
11.200000
11
107.042000
21
11.584000
0
LINE
8
Layer 1
10
107.042000
20
11.584000
11
107.004000
21
11.819000
0
LINE
8
Layer 1
10
107.004000
20
11.819000
11
106.720000
21
12.377000
0
LINE
8
Layer 1
10
106.720000
20
12.377000
11
106.277000
21
12.820000
0
LINE
8
Layer 1
10
106.277000
20
12.820000
11
105.719000
21
13.104000
0
LINE
8
Layer 1
10
105.719000
20
13.104000
11
105.100000
21
13.202000
0
LINE
8
Layer 1
10
105.100000
20
13.202000
11
104.481000
21
13.104000
0
LINE
8
Layer 1
10
104.481000
20
13.104000
11
103.923000
21
12.820000
0
LINE
8
Layer 1
10
103.923000
20
12.820000
11
103.480000
21
12.377000
0
LINE
8
Layer 1
10
103.480000
20
12.377000
11
103.196000
21
11.819000
0
LINE
8
Layer 1
10
73.196000
20
11.819000
11
73.158800
21
11.584000
0
LINE
8
Layer 1
10
73.158800
20
11.584000
11
73.098000
21
11.200000
0
LINE
8
Layer 1
10
73.098000
20
11.200000
11
73.196000
21
10.581000
0
LINE
8
Layer 1
10
73.196000
20
10.581000
11
73.480000
21
10.023000
0
LINE
8
Layer 1
10
73.480000
20
10.023000
11
73.728000
21
9.774990
0
LINE
8
Layer 1
10
73.728000
20
9.774990
11
73.923000
21
9.580000
0
LINE
8
Layer 1
10
73.923000
20
9.580000
11
74.481000
21
9.295000
0
LINE
8
Layer 1
10
74.481000
20
9.295000
11
75.100000
21
9.197010
0
LINE
8
Layer 1
10
75.100000
20
9.197010
11
75.719000
21
9.295000
0
LINE
8
Layer 1
10
75.719000
20
9.295000
11
76.277000
21
9.580000
0
LINE
8
Layer 1
10
76.277000
20
9.580000
11
76.720000
21
10.023000
0
LINE
8
Layer 1
10
76.720000
20
10.023000
11
77.004000
21
10.581000
0
LINE
8
Layer 1
10
77.004000
20
10.581000
11
77.103000
21
11.200000
0
LINE
8
Layer 1
10
77.103000
20
11.200000
11
77.041600
21
11.584000
0
LINE
8
Layer 1
10
77.041600
20
11.584000
11
77.004000
21
11.819000
0
LINE
8
Layer 1
10
77.004000
20
11.819000
11
76.720000
21
12.377000
0
LINE
8
Layer 1
10
76.720000
20
12.377000
11
76.277000
21
12.820000
0
LINE
8
Layer 1
10
76.277000
20
12.820000
11
75.719000
21
13.104000
0
LINE
8
Layer 1
10
75.719000
20
13.104000
11
75.100000
21
13.202000
0
LINE
8
Layer 1
10
75.100000
20
13.202000
11
74.481000
21
13.104000
0
LINE
8
Layer 1
10
74.481000
20
13.104000
11
73.923000
21
12.820000
0
LINE
8
Layer 1
10
73.923000
20
12.820000
11
73.480000
21
12.377000
0
LINE
8
Layer 1
10
73.480000
20
12.377000
11
73.196000
21
11.819000
0
LINE
8
Layer 1
10
206.100000
20
150.848000
11
206.044000
21
151.977000
0
LINE
8
Layer 1
10
206.044000
20
151.977000
11
205.871000
21
153.142000
0
LINE
8
Layer 1
10
205.871000
20
153.142000
11
205.585000
21
154.284000
0
LINE
8
Layer 1
10
205.585000
20
154.284000
11
205.189000
21
155.394000
0
LINE
8
Layer 1
10
205.189000
20
155.394000
11
204.800000
21
156.216000
0
LINE
8
Layer 1
10
204.800000
20
156.216000
11
204.685000
21
156.459000
0
LINE
8
Layer 1
10
204.685000
20
156.459000
11
204.301000
21
157.100000
0
LINE
8
Layer 1
10
204.301000
20
157.100000
11
204.080000
21
157.469000
0
LINE
8
Layer 1
10
204.080000
20
157.469000
11
203.378000
21
158.415000
0
LINE
8
Layer 1
10
203.378000
20
158.415000
11
202.811000
21
159.040000
0
LINE
8
Layer 1
10
202.811000
20
159.040000
11
202.587000
21
159.287000
0
LINE
8
Layer 1
10
202.587000
20
159.287000
11
201.715000
21
160.078000
0
LINE
8
Layer 1
10
201.715000
20
160.078000
11
200.769000
21
160.780000
0
LINE
8
Layer 1
10
200.769000
20
160.780000
11
199.759000
21
161.385000
0
LINE
8
Layer 1
10
199.759000
20
161.385000
11
198.694000
21
161.889000
0
LINE
8
Layer 1
10
198.694000
20
161.889000
11
197.585000
21
162.285000
0
LINE
8
Layer 1
10
197.585000
20
162.285000
11
196.608000
21
162.530000
0
LINE
8
Layer 1
10
196.608000
20
162.530000
11
196.443000
21
162.571000
0
LINE
8
Layer 1
10
196.443000
20
162.571000
11
195.278000
21
162.744000
0
LINE
8
Layer 1
10
195.278000
20
162.744000
11
194.102000
21
162.802000
0
LINE
8
Layer 1
10
194.102000
20
162.802000
11
192.926000
21
162.744000
0
LINE
8
Layer 1
10
192.926000
20
162.744000
11
191.761000
21
162.571000
0
LINE
8
Layer 1
10
191.761000
20
162.571000
11
190.619000
21
162.285000
0
LINE
8
Layer 1
10
190.619000
20
162.285000
11
189.510000
21
161.889000
0
LINE
8
Layer 1
10
189.510000
20
161.889000
11
188.445000
21
161.385000
0
LINE
8
Layer 1
10
188.445000
20
161.385000
11
188.416000
21
161.368000
0
LINE
8
Layer 1
10
188.416000
20
161.368000
11
187.435000
21
160.780000
0
LINE
8
Layer 1
10
187.435000
20
160.780000
11
186.489000
21
160.078000
0
LINE
8
Layer 1
10
186.489000
20
160.078000
11
185.617000
21
159.287000
0
LINE
8
Layer 1
10
185.617000
20
159.287000
11
185.393000
21
159.040000
0
LINE
8
Layer 1
10
185.393000
20
159.040000
11
184.826000
21
158.415000
0
LINE
8
Layer 1
10
184.826000
20
158.415000
11
184.124000
21
157.469000
0
LINE
8
Layer 1
10
184.124000
20
157.469000
11
183.903000
21
157.100000
0
LINE
8
Layer 1
10
183.903000
20
157.100000
11
183.519000
21
156.459000
0
LINE
8
Layer 1
10
183.519000
20
156.459000
11
183.015000
21
155.394000
0
LINE
8
Layer 1
10
183.015000
20
155.394000
11
182.619000
21
154.284000
0
LINE
8
Layer 1
10
182.619000
20
154.284000
11
182.333000
21
153.142000
0
LINE
8
Layer 1
10
182.333000
20
153.142000
11
182.160000
21
151.977000
0
LINE
8
Layer 1
10
182.160000
20
151.977000
11
182.104000
21
150.848000
0
LINE
8
Layer 1
10
182.104000
20
150.848000
11
182.102000
21
150.801000
0
LINE
8
Layer 1
10
182.102000
20
150.801000
11
182.160000
21
149.625000
0
LINE
8
Layer 1
10
182.160000
20
149.625000
11
182.333000
21
148.460000
0
LINE
8
Layer 1
10
182.333000
20
148.460000
11
182.619000
21
147.318000
0
LINE
8
Layer 1
10
182.619000
20
147.318000
11
183.015000
21
146.209000
0
LINE
8
Layer 1
10
183.015000
20
146.209000
11
183.519000
21
145.144000
0
LINE
8
Layer 1
10
183.519000
20
145.144000
11
184.124000
21
144.134000
0
LINE
8
Layer 1
10
184.124000
20
144.134000
11
184.826000
21
143.188000
0
LINE
8
Layer 1
10
184.826000
20
143.188000
11
185.309000
21
142.656000
0
LINE
8
Layer 1
10
185.309000
20
142.656000
11
185.617000
21
142.316000
0
LINE
8
Layer 1
10
185.617000
20
142.316000
11
186.489000
21
141.525000
0
LINE
8
Layer 1
10
186.489000
20
141.525000
11
187.435000
21
140.823000
0
LINE
8
Layer 1
10
187.435000
20
140.823000
11
188.416000
21
140.235000
0
LINE
8
Layer 1
10
188.416000
20
140.235000
11
188.445000
21
140.218000
0
LINE
8
Layer 1
10
188.445000
20
140.218000
11
189.510000
21
139.714000
0
LINE
8
Layer 1
10
189.510000
20
139.714000
11
190.619000
21
139.318000
0
LINE
8
Layer 1
10
190.619000
20
139.318000
11
191.761000
21
139.032000
0
LINE
8
Layer 1
10
191.761000
20
139.032000
11
192.926000
21
138.859000
0
LINE
8
Layer 1
10
192.926000
20
138.859000
11
194.102000
21
138.801000
0
LINE
8
Layer 1
10
194.102000
20
138.801000
11
195.278000
21
138.859000
0
LINE
8
Layer 1
10
195.278000
20
138.859000
11
196.443000
21
139.032000
0
LINE
8
Layer 1
10
196.443000
20
139.032000
11
196.608000
21
139.073000
0
LINE
8
Layer 1
10
196.608000
20
139.073000
11
197.585000
21
139.318000
0
LINE
8
Layer 1
10
197.585000
20
139.318000
11
198.694000
21
139.714000
0
LINE
8
Layer 1
10
198.694000
20
139.714000
11
199.759000
21
140.218000
0
LINE
8
Layer 1
10
199.759000
20
140.218000
11
200.769000
21
140.823000
0
LINE
8
Layer 1
10
200.769000
20
140.823000
11
201.715000
21
141.525000
0
LINE
8
Layer 1
10
201.715000
20
141.525000
11
202.587000
21
142.316000
0
LINE
8
Layer 1
10
202.587000
20
142.316000
11
202.895000
21
142.656000
0
LINE
8
Layer 1
10
202.895000
20
142.656000
11
203.378000
21
143.188000
0
LINE
8
Layer 1
10
203.378000
20
143.188000
11
204.080000
21
144.134000
0
LINE
8
Layer 1
10
204.080000
20
144.134000
11
204.685000
21
145.144000
0
LINE
8
Layer 1
10
204.685000
20
145.144000
11
204.800000
21
145.387000
0
LINE
8
Layer 1
10
204.800000
20
145.387000
11
205.189000
21
146.209000
0
LINE
8
Layer 1
10
205.189000
20
146.209000
11
205.585000
21
147.318000
0
LINE
8
Layer 1
10
205.585000
20
147.318000
11
205.871000
21
148.460000
0
LINE
8
Layer 1
10
205.871000
20
148.460000
11
206.044000
21
149.625000
0
LINE
8
Layer 1
10
206.044000
20
149.625000
11
206.102000
21
150.801000
0
LINE
8
Layer 1
10
206.102000
20
150.801000
11
206.100000
21
150.848000
0
LINE
8
Layer 1
10
143.214000
20
142.577000
11
143.108000
21
142.656000
0
LINE
8
Layer 1
10
143.108000
20
142.656000
11
142.268000
21
143.279000
0
LINE
8
Layer 1
10
142.268000
20
143.279000
11
141.258000
21
143.884000
0
LINE
8
Layer 1
10
141.258000
20
143.884000
11
140.193000
21
144.388000
0
LINE
8
Layer 1
10
140.193000
20
144.388000
11
139.264000
21
144.720000
0
LINE
8
Layer 1
10
139.264000
20
144.720000
11
139.084000
21
144.784000
0
LINE
8
Layer 1
10
139.084000
20
144.784000
11
137.942000
21
145.070000
0
LINE
8
Layer 1
10
137.942000
20
145.070000
11
136.777000
21
145.243000
0
LINE
8
Layer 1
10
136.777000
20
145.243000
11
135.601000
21
145.301000
0
LINE
8
Layer 1
10
135.601000
20
145.301000
11
134.425000
21
145.243000
0
LINE
8
Layer 1
10
134.425000
20
145.243000
11
133.260000
21
145.070000
0
LINE
8
Layer 1
10
133.260000
20
145.070000
11
132.118000
21
144.784000
0
LINE
8
Layer 1
10
132.118000
20
144.784000
11
131.072000
21
144.410000
0
LINE
8
Layer 1
10
131.072000
20
144.410000
11
131.009000
21
144.388000
0
LINE
8
Layer 1
10
131.009000
20
144.388000
11
129.944000
21
143.884000
0
LINE
8
Layer 1
10
129.944000
20
143.884000
11
128.933000
21
143.279000
0
LINE
8
Layer 1
10
128.933000
20
143.279000
11
128.093000
21
142.656000
0
LINE
8
Layer 1
10
128.093000
20
142.656000
11
127.987000
21
142.577000
0
LINE
8
Layer 1
10
127.987000
20
142.577000
11
127.115000
21
141.786000
0
LINE
8
Layer 1
10
127.115000
20
141.786000
11
126.324000
21
140.914000
0
LINE
8
Layer 1
10
126.324000
20
140.914000
11
125.622000
21
139.968000
0
LINE
8
Layer 1
10
125.622000
20
139.968000
11
125.017000
21
138.958000
0
LINE
8
Layer 1
10
125.017000
20
138.958000
11
124.513000
21
137.893000
0
LINE
8
Layer 1
10
124.513000
20
137.893000
11
124.117000
21
136.784000
0
LINE
8
Layer 1
10
124.117000
20
136.784000
11
123.831000
21
135.642000
0
LINE
8
Layer 1
10
123.831000
20
135.642000
11
123.658000
21
134.477000
0
LINE
8
Layer 1
10
123.658000
20
134.477000
11
123.657000
21
134.464000
0
LINE
8
Layer 1
10
123.657000
20
134.464000
11
123.600000
21
133.301000
0
LINE
8
Layer 1
10
123.600000
20
133.301000
11
123.658000
21
132.125000
0
LINE
8
Layer 1
10
123.658000
20
132.125000
11
123.831000
21
130.959000
0
LINE
8
Layer 1
10
123.831000
20
130.959000
11
124.117000
21
129.817000
0
LINE
8
Layer 1
10
124.117000
20
129.817000
11
124.513000
21
128.708000
0
LINE
8
Layer 1
10
124.513000
20
128.708000
11
125.017000
21
127.643000
0
LINE
8
Layer 1
10
125.017000
20
127.643000
11
125.622000
21
126.633000
0
LINE
8
Layer 1
10
125.622000
20
126.633000
11
125.890000
21
126.272000
0
LINE
8
Layer 1
10
125.890000
20
126.272000
11
126.324000
21
125.687000
0
LINE
8
Layer 1
10
126.324000
20
125.687000
11
127.115000
21
124.815000
0
LINE
8
Layer 1
10
127.115000
20
124.815000
11
127.987000
21
124.024000
0
LINE
8
Layer 1
10
127.987000
20
124.024000
11
128.933000
21
123.322000
0
LINE
8
Layer 1
10
128.933000
20
123.322000
11
129.944000
21
122.717000
0
LINE
8
Layer 1
10
129.944000
20
122.717000
11
131.009000
21
122.213000
0
LINE
8
Layer 1
10
131.009000
20
122.213000
11
131.072000
21
122.191000
0
LINE
8
Layer 1
10
131.072000
20
122.191000
11
132.118000
21
121.817000
0
LINE
8
Layer 1
10
132.118000
20
121.817000
11
133.260000
21
121.531000
0
LINE
8
Layer 1
10
133.260000
20
121.531000
11
134.425000
21
121.358000
0
LINE
8
Layer 1
10
134.425000
20
121.358000
11
135.601000
21
121.300000
0
LINE
8
Layer 1
10
135.601000
20
121.300000
11
136.777000
21
121.358000
0
LINE
8
Layer 1
10
136.777000
20
121.358000
11
137.942000
21
121.531000
0
LINE
8
Layer 1
10
137.942000
20
121.531000
11
139.084000
21
121.817000
0
LINE
8
Layer 1
10
139.084000
20
121.817000
11
139.264000
21
121.881000
0
LINE
8
Layer 1
10
139.264000
20
121.881000
11
140.193000
21
122.213000
0
LINE
8
Layer 1
10
140.193000
20
122.213000
11
141.258000
21
122.717000
0
LINE
8
Layer 1
10
141.258000
20
122.717000
11
142.268000
21
123.322000
0
LINE
8
Layer 1
10
142.268000
20
123.322000
11
143.214000
21
124.024000
0
LINE
8
Layer 1
10
143.214000
20
124.024000
11
144.086000
21
124.815000
0
LINE
8
Layer 1
10
144.086000
20
124.815000
11
144.877000
21
125.687000
0
LINE
8
Layer 1
10
144.877000
20
125.687000
11
145.311000
21
126.272000
0
LINE
8
Layer 1
10
145.311000
20
126.272000
11
145.579000
21
126.633000
0
LINE
8
Layer 1
10
145.579000
20
126.633000
11
146.184000
21
127.643000
0
LINE
8
Layer 1
10
146.184000
20
127.643000
11
146.688000
21
128.708000
0
LINE
8
Layer 1
10
146.688000
20
128.708000
11
147.084000
21
129.817000
0
LINE
8
Layer 1
10
147.084000
20
129.817000
11
147.370000
21
130.959000
0
LINE
8
Layer 1
10
147.370000
20
130.959000
11
147.456000
21
131.539000
0
LINE
8
Layer 1
10
147.456000
20
131.539000
11
147.543000
21
132.125000
0
LINE
8
Layer 1
10
147.543000
20
132.125000
11
147.601000
21
133.301000
0
LINE
8
Layer 1
10
147.601000
20
133.301000
11
147.544000
21
134.464000
0
LINE
8
Layer 1
10
147.544000
20
134.464000
11
147.543000
21
134.477000
0
LINE
8
Layer 1
10
147.543000
20
134.477000
11
147.456000
21
135.063000
0
LINE
8
Layer 1
10
147.456000
20
135.063000
11
147.370000
21
135.642000
0
LINE
8
Layer 1
10
147.370000
20
135.642000
11
147.084000
21
136.784000
0
LINE
8
Layer 1
10
147.084000
20
136.784000
11
146.688000
21
137.893000
0
LINE
8
Layer 1
10
146.688000
20
137.893000
11
146.184000
21
138.958000
0
LINE
8
Layer 1
10
146.184000
20
138.958000
11
145.579000
21
139.968000
0
LINE
8
Layer 1
10
145.579000
20
139.968000
11
144.877000
21
140.914000
0
LINE
8
Layer 1
10
144.877000
20
140.914000
11
144.086000
21
141.786000
0
LINE
8
Layer 1
10
144.086000
20
141.786000
11
143.214000
21
142.577000
0
LINE
8
Layer 1
10
153.514000
20
136.393000
11
153.118000
21
135.284000
0
LINE
8
Layer 1
10
153.118000
20
135.284000
11
152.913000
21
134.464000
0
LINE
8
Layer 1
10
152.913000
20
134.464000
11
152.832000
21
134.142000
0
LINE
8
Layer 1
10
152.832000
20
134.142000
11
152.659000
21
132.977000
0
LINE
8
Layer 1
10
152.659000
20
132.977000
11
152.601000
21
131.801000
0
LINE
8
Layer 1
10
152.601000
20
131.801000
11
152.659000
21
130.624000
0
LINE
8
Layer 1
10
152.659000
20
130.624000
11
152.832000
21
129.459000
0
LINE
8
Layer 1
10
152.832000
20
129.459000
11
153.118000
21
128.317000
0
LINE
8
Layer 1
10
153.118000
20
128.317000
11
153.514000
21
127.208000
0
LINE
8
Layer 1
10
153.514000
20
127.208000
11
153.957000
21
126.272000
0
LINE
8
Layer 1
10
153.957000
20
126.272000
11
154.018000
21
126.143000
0
LINE
8
Layer 1
10
154.018000
20
126.143000
11
154.623000
21
125.133000
0
LINE
8
Layer 1
10
154.623000
20
125.133000
11
155.325000
21
124.187000
0
LINE
8
Layer 1
10
155.325000
20
124.187000
11
155.648000
21
123.831000
0
LINE
8
Layer 1
10
155.648000
20
123.831000
11
156.116000
21
123.315000
0
LINE
8
Layer 1
10
156.116000
20
123.315000
11
156.988000
21
122.524000
0
LINE
8
Layer 1
10
156.988000
20
122.524000
11
157.934000
21
121.822000
0
LINE
8
Layer 1
10
157.934000
20
121.822000
11
158.944000
21
121.217000
0
LINE
8
Layer 1
10
158.944000
20
121.217000
11
160.009000
21
120.713000
0
LINE
8
Layer 1
10
160.009000
20
120.713000
11
161.118000
21
120.317000
0
LINE
8
Layer 1
10
161.118000
20
120.317000
11
162.260000
21
120.031000
0
LINE
8
Layer 1
10
162.260000
20
120.031000
11
163.425000
21
119.858000
0
LINE
8
Layer 1
10
163.425000
20
119.858000
11
163.840000
21
119.838000
0
LINE
8
Layer 1
10
163.840000
20
119.838000
11
164.601000
21
119.800000
0
LINE
8
Layer 1
10
164.601000
20
119.800000
11
165.777000
21
119.858000
0
LINE
8
Layer 1
10
165.777000
20
119.858000
11
166.942000
21
120.031000
0
LINE
8
Layer 1
10
166.942000
20
120.031000
11
168.084000
21
120.317000
0
LINE
8
Layer 1
10
168.084000
20
120.317000
11
169.194000
21
120.713000
0
LINE
8
Layer 1
10
169.194000
20
120.713000
11
170.259000
21
121.217000
0
LINE
8
Layer 1
10
170.259000
20
121.217000
11
171.269000
21
121.822000
0
LINE
8
Layer 1
10
171.269000
20
121.822000
11
172.032000
21
122.388000
0
LINE
8
Layer 1
10
172.032000
20
122.388000
11
172.215000
21
122.524000
0
LINE
8
Layer 1
10
172.215000
20
122.524000
11
173.087000
21
123.315000
0
LINE
8
Layer 1
10
173.087000
20
123.315000
11
173.878000
21
124.187000
0
LINE
8
Layer 1
10
173.878000
20
124.187000
11
174.580000
21
125.133000
0
LINE
8
Layer 1
10
174.580000
20
125.133000
11
175.185000
21
126.143000
0
LINE
8
Layer 1
10
175.185000
20
126.143000
11
175.246000
21
126.272000
0
LINE
8
Layer 1
10
175.246000
20
126.272000
11
175.689000
21
127.208000
0
LINE
8
Layer 1
10
175.689000
20
127.208000
11
176.085000
21
128.317000
0
LINE
8
Layer 1
10
176.085000
20
128.317000
11
176.371000
21
129.459000
0
LINE
8
Layer 1
10
176.371000
20
129.459000
11
176.544000
21
130.624000
0
LINE
8
Layer 1
10
176.544000
20
130.624000
11
176.602000
21
131.801000
0
LINE
8
Layer 1
10
176.602000
20
131.801000
11
176.544000
21
132.977000
0
LINE
8
Layer 1
10
176.544000
20
132.977000
11
176.371000
21
134.142000
0
LINE
8
Layer 1
10
176.371000
20
134.142000
11
176.290000
21
134.464000
0
LINE
8
Layer 1
10
176.290000
20
134.464000
11
176.085000
21
135.284000
0
LINE
8
Layer 1
10
176.085000
20
135.284000
11
175.689000
21
136.393000
0
LINE
8
Layer 1
10
175.689000
20
136.393000
11
175.185000
21
137.458000
0
LINE
8
Layer 1
10
175.185000
20
137.458000
11
174.580000
21
138.468000
0
LINE
8
Layer 1
10
174.580000
20
138.468000
11
173.878000
21
139.414000
0
LINE
8
Layer 1
10
173.878000
20
139.414000
11
173.087000
21
140.286000
0
LINE
8
Layer 1
10
173.087000
20
140.286000
11
172.215000
21
141.077000
0
LINE
8
Layer 1
10
172.215000
20
141.077000
11
172.032000
21
141.213000
0
LINE
8
Layer 1
10
172.032000
20
141.213000
11
171.269000
21
141.779000
0
LINE
8
Layer 1
10
171.269000
20
141.779000
11
170.259000
21
142.384000
0
LINE
8
Layer 1
10
170.259000
20
142.384000
11
169.684000
21
142.656000
0
LINE
8
Layer 1
10
169.684000
20
142.656000
11
169.194000
21
142.888000
0
LINE
8
Layer 1
10
169.194000
20
142.888000
11
168.084000
21
143.284000
0
LINE
8
Layer 1
10
168.084000
20
143.284000
11
166.942000
21
143.570000
0
LINE
8
Layer 1
10
166.942000
20
143.570000
11
165.777000
21
143.743000
0
LINE
8
Layer 1
10
165.777000
20
143.743000
11
164.601000
21
143.801000
0
LINE
8
Layer 1
10
164.601000
20
143.801000
11
163.840000
21
143.763000
0
LINE
8
Layer 1
10
163.840000
20
143.763000
11
163.425000
21
143.743000
0
LINE
8
Layer 1
10
163.425000
20
143.743000
11
162.260000
21
143.570000
0
LINE
8
Layer 1
10
162.260000
20
143.570000
11
161.118000
21
143.284000
0
LINE
8
Layer 1
10
161.118000
20
143.284000
11
160.009000
21
142.888000
0
LINE
8
Layer 1
10
160.009000
20
142.888000
11
159.519000
21
142.656000
0
LINE
8
Layer 1
10
159.519000
20
142.656000
11
158.944000
21
142.384000
0
LINE
8
Layer 1
10
158.944000
20
142.384000
11
157.934000
21
141.779000
0
LINE
8
Layer 1
10
157.934000
20
141.779000
11
156.988000
21
141.077000
0
LINE
8
Layer 1
10
156.988000
20
141.077000
11
156.116000
21
140.286000
0
LINE
8
Layer 1
10
156.116000
20
140.286000
11
155.648000
21
139.770000
0
LINE
8
Layer 1
10
155.648000
20
139.770000
11
155.325000
21
139.414000
0
LINE
8
Layer 1
10
155.325000
20
139.414000
11
154.623000
21
138.468000
0
LINE
8
Layer 1
10
154.623000
20
138.468000
11
154.018000
21
137.458000
0
LINE
8
Layer 1
10
154.018000
20
137.458000
11
153.514000
21
136.393000
0
LINE
8
Layer 1
10
136.177000
20
151.359000
11
137.342000
21
151.532000
0
LINE
8
Layer 1
10
137.342000
20
151.532000
11
138.484000
21
151.818000
0
LINE
8
Layer 1
10
138.484000
20
151.818000
11
139.264000
21
152.097000
0
LINE
8
Layer 1
10
139.264000
20
152.097000
11
139.593000
21
152.214000
0
LINE
8
Layer 1
10
139.593000
20
152.214000
11
140.658000
21
152.718000
0
LINE
8
Layer 1
10
140.658000
20
152.718000
11
141.668000
21
153.323000
0
LINE
8
Layer 1
10
141.668000
20
153.323000
11
142.614000
21
154.025000
0
LINE
8
Layer 1
10
142.614000
20
154.025000
11
143.486000
21
154.817000
0
LINE
8
Layer 1
10
143.486000
20
154.817000
11
144.277000
21
155.689000
0
LINE
8
Layer 1
10
144.277000
20
155.689000
11
144.979000
21
156.635000
0
LINE
8
Layer 1
10
144.979000
20
156.635000
11
145.258000
21
157.100000
0
LINE
8
Layer 1
10
145.258000
20
157.100000
11
145.584000
21
157.645000
0
LINE
8
Layer 1
10
145.584000
20
157.645000
11
146.088000
21
158.710000
0
LINE
8
Layer 1
10
146.088000
20
158.710000
11
146.206000
21
159.040000
0
LINE
8
Layer 1
10
146.206000
20
159.040000
11
146.484000
21
159.819000
0
LINE
8
Layer 1
10
146.484000
20
159.819000
11
146.770000
21
160.961000
0
LINE
8
Layer 1
10
146.770000
20
160.961000
11
146.943000
21
162.126000
0
LINE
8
Layer 1
10
146.943000
20
162.126000
11
147.001000
21
163.302000
0
LINE
8
Layer 1
10
147.001000
20
163.302000
11
146.943000
21
164.478000
0
LINE
8
Layer 1
10
146.943000
20
164.478000
11
146.770000
21
165.643000
0
LINE
8
Layer 1
10
146.770000
20
165.643000
11
146.484000
21
166.785000
0
LINE
8
Layer 1
10
146.484000
20
166.785000
11
146.324000
21
167.232000
0
LINE
8
Layer 1
10
146.324000
20
167.232000
11
146.088000
21
167.894000
0
LINE
8
Layer 1
10
146.088000
20
167.894000
11
145.584000
21
168.959000
0
LINE
8
Layer 1
10
145.584000
20
168.959000
11
144.979000
21
169.969000
0
LINE
8
Layer 1
10
144.979000
20
169.969000
11
144.277000
21
170.915000
0
LINE
8
Layer 1
10
144.277000
20
170.915000
11
143.486000
21
171.787000
0
LINE
8
Layer 1
10
143.486000
20
171.787000
11
142.614000
21
172.578000
0
LINE
8
Layer 1
10
142.614000
20
172.578000
11
141.668000
21
173.280000
0
LINE
8
Layer 1
10
141.668000
20
173.280000
11
140.658000
21
173.885000
0
LINE
8
Layer 1
10
140.658000
20
173.885000
11
139.593000
21
174.389000
0
LINE
8
Layer 1
10
139.593000
20
174.389000
11
139.264000
21
174.506000
0
LINE
8
Layer 1
10
139.264000
20
174.506000
11
138.484000
21
174.785000
0
LINE
8
Layer 1
10
138.484000
20
174.785000
11
137.342000
21
175.071000
0
LINE
8
Layer 1
10
137.342000
20
175.071000
11
136.177000
21
175.244000
0
LINE
8
Layer 1
10
136.177000
20
175.244000
11
135.001000
21
175.302000
0
LINE
8
Layer 1
10
135.001000
20
175.302000
11
133.825000
21
175.244000
0
LINE
8
Layer 1
10
133.825000
20
175.244000
11
132.660000
21
175.071000
0
LINE
8
Layer 1
10
132.660000
20
175.071000
11
131.518000
21
174.785000
0
LINE
8
Layer 1
10
131.518000
20
174.785000
11
131.072000
21
174.626000
0
LINE
8
Layer 1
10
131.072000
20
174.626000
11
130.409000
21
174.389000
0
LINE
8
Layer 1
10
130.409000
20
174.389000
11
129.343000
21
173.885000
0
LINE
8
Layer 1
10
129.343000
20
173.885000
11
128.333000
21
173.280000
0
LINE
8
Layer 1
10
128.333000
20
173.280000
11
127.387000
21
172.578000
0
LINE
8
Layer 1
10
127.387000
20
172.578000
11
126.515000
21
171.787000
0
LINE
8
Layer 1
10
126.515000
20
171.787000
11
125.724000
21
170.915000
0
LINE
8
Layer 1
10
125.724000
20
170.915000
11
125.022000
21
169.969000
0
LINE
8
Layer 1
10
125.022000
20
169.969000
11
124.417000
21
168.959000
0
LINE
8
Layer 1
10
124.417000
20
168.959000
11
123.913000
21
167.894000
0
LINE
8
Layer 1
10
123.913000
20
167.894000
11
123.677000
21
167.232000
0
LINE
8
Layer 1
10
123.677000
20
167.232000
11
123.517000
21
166.785000
0
LINE
8
Layer 1
10
123.517000
20
166.785000
11
123.231000
21
165.643000
0
LINE
8
Layer 1
10
123.231000
20
165.643000
11
123.058000
21
164.478000
0
LINE
8
Layer 1
10
123.058000
20
164.478000
11
123.000000
21
163.302000
0
LINE
8
Layer 1
10
123.000000
20
163.302000
11
123.058000
21
162.126000
0
LINE
8
Layer 1
10
123.058000
20
162.126000
11
123.231000
21
160.961000
0
LINE
8
Layer 1
10
123.231000
20
160.961000
11
123.517000
21
159.819000
0
LINE
8
Layer 1
10
123.517000
20
159.819000
11
123.795000
21
159.040000
0
LINE
8
Layer 1
10
123.795000
20
159.040000
11
123.913000
21
158.710000
0
LINE
8
Layer 1
10
123.913000
20
158.710000
11
124.417000
21
157.645000
0
LINE
8
Layer 1
10
124.417000
20
157.645000
11
124.743000
21
157.100000
0
LINE
8
Layer 1
10
124.743000
20
157.100000
11
125.022000
21
156.635000
0
LINE
8
Layer 1
10
125.022000
20
156.635000
11
125.724000
21
155.689000
0
LINE
8
Layer 1
10
125.724000
20
155.689000
11
126.515000
21
154.817000
0
LINE
8
Layer 1
10
126.515000
20
154.817000
11
127.387000
21
154.025000
0
LINE
8
Layer 1
10
127.387000
20
154.025000
11
128.333000
21
153.323000
0
LINE
8
Layer 1
10
128.333000
20
153.323000
11
129.343000
21
152.718000
0
LINE
8
Layer 1
10
129.343000
20
152.718000
11
130.409000
21
152.214000
0
LINE
8
Layer 1
10
130.409000
20
152.214000
11
131.072000
21
151.977000
0
LINE
8
Layer 1
10
131.072000
20
151.977000
11
131.518000
21
151.818000
0
LINE
8
Layer 1
10
131.518000
20
151.818000
11
132.660000
21
151.532000
0
LINE
8
Layer 1
10
132.660000
20
151.532000
11
133.825000
21
151.359000
0
LINE
8
Layer 1
10
133.825000
20
151.359000
11
135.001000
21
151.301000
0
LINE
8
Layer 1
10
135.001000
20
151.301000
11
136.177000
21
151.359000
0
LINE
8
Layer 1
10
155.325000
20
155.689000
11
155.648000
21
155.333000
0
LINE
8
Layer 1
10
155.648000
20
155.333000
11
156.116000
21
154.817000
0
LINE
8
Layer 1
10
156.116000
20
154.817000
11
156.988000
21
154.025000
0
LINE
8
Layer 1
10
156.988000
20
154.025000
11
157.934000
21
153.323000
0
LINE
8
Layer 1
10
157.934000
20
153.323000
11
158.944000
21
152.718000
0
LINE
8
Layer 1
10
158.944000
20
152.718000
11
160.009000
21
152.214000
0
LINE
8
Layer 1
10
160.009000
20
152.214000
11
161.118000
21
151.818000
0
LINE
8
Layer 1
10
161.118000
20
151.818000
11
162.260000
21
151.532000
0
LINE
8
Layer 1
10
162.260000
20
151.532000
11
163.425000
21
151.359000
0
LINE
8
Layer 1
10
163.425000
20
151.359000
11
163.840000
21
151.339000
0
LINE
8
Layer 1
10
163.840000
20
151.339000
11
164.601000
21
151.301000
0
LINE
8
Layer 1
10
164.601000
20
151.301000
11
165.777000
21
151.359000
0
LINE
8
Layer 1
10
165.777000
20
151.359000
11
166.942000
21
151.532000
0
LINE
8
Layer 1
10
166.942000
20
151.532000
11
168.084000
21
151.818000
0
LINE
8
Layer 1
10
168.084000
20
151.818000
11
169.194000
21
152.214000
0
LINE
8
Layer 1
10
169.194000
20
152.214000
11
170.259000
21
152.718000
0
LINE
8
Layer 1
10
170.259000
20
152.718000
11
171.269000
21
153.323000
0
LINE
8
Layer 1
10
171.269000
20
153.323000
11
172.032000
21
153.889000
0
LINE
8
Layer 1
10
172.032000
20
153.889000
11
172.215000
21
154.025000
0
LINE
8
Layer 1
10
172.215000
20
154.025000
11
173.087000
21
154.817000
0
LINE
8
Layer 1
10
173.087000
20
154.817000
11
173.878000
21
155.689000
0
LINE
8
Layer 1
10
173.878000
20
155.689000
11
174.580000
21
156.635000
0
LINE
8
Layer 1
10
174.580000
20
156.635000
11
174.859000
21
157.100000
0
LINE
8
Layer 1
10
174.859000
20
157.100000
11
175.185000
21
157.645000
0
LINE
8
Layer 1
10
175.185000
20
157.645000
11
175.689000
21
158.710000
0
LINE
8
Layer 1
10
175.689000
20
158.710000
11
175.807000
21
159.040000
0
LINE
8
Layer 1
10
175.807000
20
159.040000
11
176.085000
21
159.819000
0
LINE
8
Layer 1
10
176.085000
20
159.819000
11
176.371000
21
160.961000
0
LINE
8
Layer 1
10
176.371000
20
160.961000
11
176.544000
21
162.126000
0
LINE
8
Layer 1
10
176.544000
20
162.126000
11
176.602000
21
163.302000
0
LINE
8
Layer 1
10
176.602000
20
163.302000
11
176.544000
21
164.478000
0
LINE
8
Layer 1
10
176.544000
20
164.478000
11
176.371000
21
165.643000
0
LINE
8
Layer 1
10
176.371000
20
165.643000
11
176.085000
21
166.785000
0
LINE
8
Layer 1
10
176.085000
20
166.785000
11
175.925000
21
167.232000
0
LINE
8
Layer 1
10
175.925000
20
167.232000
11
175.689000
21
167.894000
0
LINE
8
Layer 1
10
175.689000
20
167.894000
11
175.185000
21
168.959000
0
LINE
8
Layer 1
10
175.185000
20
168.959000
11
174.580000
21
169.969000
0
LINE
8
Layer 1
10
174.580000
20
169.969000
11
173.878000
21
170.915000
0
LINE
8
Layer 1
10
173.878000
20
170.915000
11
173.087000
21
171.787000
0
LINE
8
Layer 1
10
173.087000
20
171.787000
11
172.215000
21
172.578000
0
LINE
8
Layer 1
10
172.215000
20
172.578000
11
172.032000
21
172.714000
0
LINE
8
Layer 1
10
172.032000
20
172.714000
11
171.269000
21
173.280000
0
LINE
8
Layer 1
10
171.269000
20
173.280000
11
170.259000
21
173.885000
0
LINE
8
Layer 1
10
170.259000
20
173.885000
11
169.194000
21
174.389000
0
LINE
8
Layer 1
10
169.194000
20
174.389000
11
168.084000
21
174.785000
0
LINE
8
Layer 1
10
168.084000
20
174.785000
11
166.942000
21
175.071000
0
LINE
8
Layer 1
10
166.942000
20
175.071000
11
165.777000
21
175.244000
0
LINE
8
Layer 1
10
165.777000
20
175.244000
11
164.601000
21
175.302000
0
LINE
8
Layer 1
10
164.601000
20
175.302000
11
163.840000
21
175.264000
0
LINE
8
Layer 1
10
163.840000
20
175.264000
11
163.425000
21
175.244000
0
LINE
8
Layer 1
10
163.425000
20
175.244000
11
162.260000
21
175.071000
0
LINE
8
Layer 1
10
162.260000
20
175.071000
11
161.118000
21
174.785000
0
LINE
8
Layer 1
10
161.118000
20
174.785000
11
160.009000
21
174.389000
0
LINE
8
Layer 1
10
160.009000
20
174.389000
11
158.944000
21
173.885000
0
LINE
8
Layer 1
10
158.944000
20
173.885000
11
157.934000
21
173.280000
0
LINE
8
Layer 1
10
157.934000
20
173.280000
11
156.988000
21
172.578000
0
LINE
8
Layer 1
10
156.988000
20
172.578000
11
156.116000
21
171.787000
0
LINE
8
Layer 1
10
156.116000
20
171.787000
11
155.648000
21
171.271000
0
LINE
8
Layer 1
10
155.648000
20
171.271000
11
155.325000
21
170.915000
0
LINE
8
Layer 1
10
155.325000
20
170.915000
11
154.623000
21
169.969000
0
LINE
8
Layer 1
10
154.623000
20
169.969000
11
154.018000
21
168.959000
0
LINE
8
Layer 1
10
154.018000
20
168.959000
11
153.514000
21
167.894000
0
LINE
8
Layer 1
10
153.514000
20
167.894000
11
153.278000
21
167.232000
0
LINE
8
Layer 1
10
153.278000
20
167.232000
11
153.118000
21
166.785000
0
LINE
8
Layer 1
10
153.118000
20
166.785000
11
152.832000
21
165.643000
0
LINE
8
Layer 1
10
152.832000
20
165.643000
11
152.659000
21
164.478000
0
LINE
8
Layer 1
10
152.659000
20
164.478000
11
152.601000
21
163.302000
0
LINE
8
Layer 1
10
152.601000
20
163.302000
11
152.659000
21
162.126000
0
LINE
8
Layer 1
10
152.659000
20
162.126000
11
152.832000
21
160.961000
0
LINE
8
Layer 1
10
152.832000
20
160.961000
11
153.118000
21
159.819000
0
LINE
8
Layer 1
10
153.118000
20
159.819000
11
153.396000
21
159.040000
0
LINE
8
Layer 1
10
153.396000
20
159.040000
11
153.514000
21
158.710000
0
LINE
8
Layer 1
10
153.514000
20
158.710000
11
154.018000
21
157.645000
0
LINE
8
Layer 1
10
154.018000
20
157.645000
11
154.344000
21
157.100000
0
LINE
8
Layer 1
10
154.344000
20
157.100000
11
154.623000
21
156.635000
0
LINE
8
Layer 1
10
154.623000
20
156.635000
11
155.325000
21
155.689000
0
LINE
8
Layer 1
10
69.512000
20
135.393000
11
69.180300
21
134.464000
0
LINE
8
Layer 1
10
69.180300
20
134.464000
11
69.116000
21
134.284000
0
LINE
8
Layer 1
10
69.116000
20
134.284000
11
68.830000
21
133.142000
0
LINE
8
Layer 1
10
68.830000
20
133.142000
11
68.657000
21
131.977000
0
LINE
8
Layer 1
10
68.657000
20
131.977000
11
68.599000
21
130.800000
0
LINE
8
Layer 1
10
68.599000
20
130.800000
11
68.657000
21
129.624000
0
LINE
8
Layer 1
10
68.657000
20
129.624000
11
68.830000
21
128.459000
0
LINE
8
Layer 1
10
68.830000
20
128.459000
11
69.116000
21
127.317000
0
LINE
8
Layer 1
10
69.116000
20
127.317000
11
69.489100
21
126.272000
0
LINE
8
Layer 1
10
69.489100
20
126.272000
11
69.512000
21
126.208000
0
LINE
8
Layer 1
10
69.512000
20
126.208000
11
70.016000
21
125.143000
0
LINE
8
Layer 1
10
70.016000
20
125.143000
11
70.621000
21
124.133000
0
LINE
8
Layer 1
10
70.621000
20
124.133000
11
71.323000
21
123.187000
0
LINE
8
Layer 1
10
71.323000
20
123.187000
11
72.114000
21
122.315000
0
LINE
8
Layer 1
10
72.114000
20
122.315000
11
72.986000
21
121.524000
0
LINE
8
Layer 1
10
72.986000
20
121.524000
11
73.728000
21
120.973000
0
LINE
8
Layer 1
10
73.728000
20
120.973000
11
73.932000
21
120.822000
0
LINE
8
Layer 1
10
73.932000
20
120.822000
11
74.942000
21
120.217000
0
LINE
8
Layer 1
10
74.942000
20
120.217000
11
76.007000
21
119.713000
0
LINE
8
Layer 1
10
76.007000
20
119.713000
11
77.116000
21
119.317000
0
LINE
8
Layer 1
10
77.116000
20
119.317000
11
78.258000
21
119.031000
0
LINE
8
Layer 1
10
78.258000
20
119.031000
11
79.423000
21
118.858000
0
LINE
8
Layer 1
10
79.423000
20
118.858000
11
80.599000
21
118.800000
0
LINE
8
Layer 1
10
80.599000
20
118.800000
11
81.775000
21
118.858000
0
LINE
8
Layer 1
10
81.775000
20
118.858000
11
81.920000
21
118.880000
0
LINE
8
Layer 1
10
81.920000
20
118.880000
11
82.940000
21
119.031000
0
LINE
8
Layer 1
10
82.940000
20
119.031000
11
84.082000
21
119.317000
0
LINE
8
Layer 1
10
84.082000
20
119.317000
11
85.191000
21
119.713000
0
LINE
8
Layer 1
10
85.191000
20
119.713000
11
86.256000
21
120.217000
0
LINE
8
Layer 1
10
86.256000
20
120.217000
11
87.266000
21
120.822000
0
LINE
8
Layer 1
10
87.266000
20
120.822000
11
88.212000
21
121.524000
0
LINE
8
Layer 1
10
88.212000
20
121.524000
11
89.084000
21
122.315000
0
LINE
8
Layer 1
10
89.084000
20
122.315000
11
89.876000
21
123.187000
0
LINE
8
Layer 1
10
89.876000
20
123.187000
11
90.112000
21
123.505000
0
LINE
8
Layer 1
10
90.112000
20
123.505000
11
90.578000
21
124.133000
0
LINE
8
Layer 1
10
90.578000
20
124.133000
11
91.183000
21
125.143000
0
LINE
8
Layer 1
10
91.183000
20
125.143000
11
91.687000
21
126.208000
0
LINE
8
Layer 1
10
91.687000
20
126.208000
11
91.709900
21
126.272000
0
LINE
8
Layer 1
10
91.709900
20
126.272000
11
92.083000
21
127.317000
0
LINE
8
Layer 1
10
92.083000
20
127.317000
11
92.369000
21
128.459000
0
LINE
8
Layer 1
10
92.369000
20
128.459000
11
92.542000
21
129.624000
0
LINE
8
Layer 1
10
92.542000
20
129.624000
11
92.600000
21
130.800000
0
LINE
8
Layer 1
10
92.600000
20
130.800000
11
92.542000
21
131.977000
0
LINE
8
Layer 1
10
92.542000
20
131.977000
11
92.369000
21
133.142000
0
LINE
8
Layer 1
10
92.369000
20
133.142000
11
92.083000
21
134.284000
0
LINE
8
Layer 1
10
92.083000
20
134.284000
11
92.018700
21
134.464000
0
LINE
8
Layer 1
10
92.018700
20
134.464000
11
91.687000
21
135.393000
0
LINE
8
Layer 1
10
91.687000
20
135.393000
11
91.183000
21
136.458000
0
LINE
8
Layer 1
10
91.183000
20
136.458000
11
90.578000
21
137.468000
0
LINE
8
Layer 1
10
90.578000
20
137.468000
11
90.112000
21
138.096000
0
LINE
8
Layer 1
10
90.112000
20
138.096000
11
89.876000
21
138.414000
0
LINE
8
Layer 1
10
89.876000
20
138.414000
11
89.084000
21
139.286000
0
LINE
8
Layer 1
10
89.084000
20
139.286000
11
88.212000
21
140.077000
0
LINE
8
Layer 1
10
88.212000
20
140.077000
11
87.266000
21
140.779000
0
LINE
8
Layer 1
10
87.266000
20
140.779000
11
86.256000
21
141.384000
0
LINE
8
Layer 1
10
86.256000
20
141.384000
11
85.191000
21
141.888000
0
LINE
8
Layer 1
10
85.191000
20
141.888000
11
84.082000
21
142.284000
0
LINE
8
Layer 1
10
84.082000
20
142.284000
11
82.940000
21
142.570000
0
LINE
8
Layer 1
10
82.940000
20
142.570000
11
82.360900
21
142.656000
0
LINE
8
Layer 1
10
82.360900
20
142.656000
11
81.920000
21
142.721000
0
LINE
8
Layer 1
10
81.920000
20
142.721000
11
81.775000
21
142.743000
0
LINE
8
Layer 1
10
81.775000
20
142.743000
11
80.599000
21
142.801000
0
LINE
8
Layer 1
10
80.599000
20
142.801000
11
79.423000
21
142.743000
0
LINE
8
Layer 1
10
79.423000
20
142.743000
11
78.837100
21
142.656000
0
LINE
8
Layer 1
10
78.837100
20
142.656000
11
78.258000
21
142.570000
0
LINE
8
Layer 1
10
78.258000
20
142.570000
11
77.116000
21
142.284000
0
LINE
8
Layer 1
10
77.116000
20
142.284000
11
76.007000
21
141.888000
0
LINE
8
Layer 1
10
76.007000
20
141.888000
11
74.942000
21
141.384000
0
LINE
8
Layer 1
10
74.942000
20
141.384000
11
73.932000
21
140.779000
0
LINE
8
Layer 1
10
73.932000
20
140.779000
11
73.728000
21
140.628000
0
LINE
8
Layer 1
10
73.728000
20
140.628000
11
72.986000
21
140.077000
0
LINE
8
Layer 1
10
72.986000
20
140.077000
11
72.114000
21
139.286000
0
LINE
8
Layer 1
10
72.114000
20
139.286000
11
71.323000
21
138.414000
0
LINE
8
Layer 1
10
71.323000
20
138.414000
11
70.621000
21
137.468000
0
LINE
8
Layer 1
10
70.621000
20
137.468000
11
70.016000
21
136.458000
0
LINE
8
Layer 1
10
70.016000
20
136.458000
11
69.512000
21
135.393000
0
LINE
8
Layer 1
10
66.262300
20
142.656000
11
66.299000
21
143.401000
0
LINE
8
Layer 1
10
66.299000
20
143.401000
11
66.241000
21
144.577000
0
LINE
8
Layer 1
10
66.241000
20
144.577000
11
66.068000
21
145.742000
0
LINE
8
Layer 1
10
66.068000
20
145.742000
11
65.782000
21
146.884000
0
LINE
8
Layer 1
10
65.782000
20
146.884000
11
65.536000
21
147.573000
0
LINE
8
Layer 1
10
65.536000
20
147.573000
11
65.386000
21
147.993000
0
LINE
8
Layer 1
10
65.386000
20
147.993000
11
64.882000
21
149.058000
0
LINE
8
Layer 1
10
64.882000
20
149.058000
11
64.277000
21
150.068000
0
LINE
8
Layer 1
10
64.277000
20
150.068000
11
63.698200
21
150.848000
0
LINE
8
Layer 1
10
63.698200
20
150.848000
11
63.575000
21
151.014000
0
LINE
8
Layer 1
10
63.575000
20
151.014000
11
62.784000
21
151.886000
0
LINE
8
Layer 1
10
62.784000
20
151.886000
11
61.912000
21
152.677000
0
LINE
8
Layer 1
10
61.912000
20
152.677000
11
60.966000
21
153.379000
0
LINE
8
Layer 1
10
60.966000
20
153.379000
11
59.956000
21
153.984000
0
LINE
8
Layer 1
10
59.956000
20
153.984000
11
58.891000
21
154.488000
0
LINE
8
Layer 1
10
58.891000
20
154.488000
11
57.782000
21
154.885000
0
LINE
8
Layer 1
10
57.782000
20
154.885000
11
57.344000
21
154.995000
0
LINE
8
Layer 1
10
57.344000
20
154.995000
11
56.640000
21
155.171000
0
LINE
8
Layer 1
10
56.640000
20
155.171000
11
55.475000
21
155.344000
0
LINE
8
Layer 1
10
55.475000
20
155.344000
11
54.299000
21
155.402000
0
LINE
8
Layer 1
10
54.299000
20
155.402000
11
53.123000
21
155.344000
0
LINE
8
Layer 1
10
53.123000
20
155.344000
11
51.958000
21
155.171000
0
LINE
8
Layer 1
10
51.958000
20
155.171000
11
50.816000
21
154.885000
0
LINE
8
Layer 1
10
50.816000
20
154.885000
11
49.707000
21
154.488000
0
LINE
8
Layer 1
10
49.707000
20
154.488000
11
49.152000
21
154.226000
0
LINE
8
Layer 1
10
49.152000
20
154.226000
11
48.641000
21
153.984000
0
LINE
8
Layer 1
10
48.641000
20
153.984000
11
47.631000
21
153.379000
0
LINE
8
Layer 1
10
47.631000
20
153.379000
11
46.685000
21
152.677000
0
LINE
8
Layer 1
10
46.685000
20
152.677000
11
45.813000
21
151.886000
0
LINE
8
Layer 1
10
45.813000
20
151.886000
11
45.022000
21
151.014000
0
LINE
8
Layer 1
10
45.022000
20
151.014000
11
44.898800
21
150.848000
0
LINE
8
Layer 1
10
44.898800
20
150.848000
11
44.320000
21
150.068000
0
LINE
8
Layer 1
10
44.320000
20
150.068000
11
43.715000
21
149.058000
0
LINE
8
Layer 1
10
43.715000
20
149.058000
11
43.211000
21
147.993000
0
LINE
8
Layer 1
10
43.211000
20
147.993000
11
42.815000
21
146.884000
0
LINE
8
Layer 1
10
42.815000
20
146.884000
11
42.529000
21
145.742000
0
LINE
8
Layer 1
10
42.529000
20
145.742000
11
42.356000
21
144.577000
0
LINE
8
Layer 1
10
42.356000
20
144.577000
11
42.298000
21
143.401000
0
LINE
8
Layer 1
10
42.298000
20
143.401000
11
42.334700
21
142.656000
0
LINE
8
Layer 1
10
42.334700
20
142.656000
11
42.356000
21
142.225000
0
LINE
8
Layer 1
10
42.356000
20
142.225000
11
42.529000
21
141.060000
0
LINE
8
Layer 1
10
42.529000
20
141.060000
11
42.815000
21
139.918000
0
LINE
8
Layer 1
10
42.815000
20
139.918000
11
43.211000
21
138.809000
0
LINE
8
Layer 1
10
43.211000
20
138.809000
11
43.715000
21
137.744000
0
LINE
8
Layer 1
10
43.715000
20
137.744000
11
44.320000
21
136.734000
0
LINE
8
Layer 1
10
44.320000
20
136.734000
11
45.022000
21
135.788000
0
LINE
8
Layer 1
10
45.022000
20
135.788000
11
45.813000
21
134.916000
0
LINE
8
Layer 1
10
45.813000
20
134.916000
11
46.311300
21
134.464000
0
LINE
8
Layer 1
10
46.311300
20
134.464000
11
46.685000
21
134.125000
0
LINE
8
Layer 1
10
46.685000
20
134.125000
11
47.631000
21
133.423000
0
LINE
8
Layer 1
10
47.631000
20
133.423000
11
48.641000
21
132.818000
0
LINE
8
Layer 1
10
48.641000
20
132.818000
11
49.152000
21
132.576000
0
LINE
8
Layer 1
10
49.152000
20
132.576000
11
49.707000
21
132.314000
0
LINE
8
Layer 1
10
49.707000
20
132.314000
11
50.816000
21
131.918000
0
LINE
8
Layer 1
10
50.816000
20
131.918000
11
51.958000
21
131.632000
0
LINE
8
Layer 1
10
51.958000
20
131.632000
11
53.123000
21
131.459000
0
LINE
8
Layer 1
10
53.123000
20
131.459000
11
54.299000
21
131.401000
0
LINE
8
Layer 1
10
54.299000
20
131.401000
11
55.475000
21
131.459000
0
LINE
8
Layer 1
10
55.475000
20
131.459000
11
56.640000
21
131.632000
0
LINE
8
Layer 1
10
56.640000
20
131.632000
11
57.344000
21
131.808000
0
LINE
8
Layer 1
10
57.344000
20
131.808000
11
57.782000
21
131.918000
0
LINE
8
Layer 1
10
57.782000
20
131.918000
11
58.891000
21
132.314000
0
LINE
8
Layer 1
10
58.891000
20
132.314000
11
59.956000
21
132.818000
0
LINE
8
Layer 1
10
59.956000
20
132.818000
11
60.966000
21
133.423000
0
LINE
8
Layer 1
10
60.966000
20
133.423000
11
61.912000
21
134.125000
0
LINE
8
Layer 1
10
61.912000
20
134.125000
11
62.285700
21
134.464000
0
LINE
8
Layer 1
10
62.285700
20
134.464000
11
62.784000
21
134.916000
0
LINE
8
Layer 1
10
62.784000
20
134.916000
11
63.575000
21
135.788000
0
LINE
8
Layer 1
10
63.575000
20
135.788000
11
64.277000
21
136.734000
0
LINE
8
Layer 1
10
64.277000
20
136.734000
11
64.882000
21
137.744000
0
LINE
8
Layer 1
10
64.882000
20
137.744000
11
65.386000
21
138.809000
0
LINE
8
Layer 1
10
65.386000
20
138.809000
11
65.536000
21
139.229000
0
LINE
8
Layer 1
10
65.536000
20
139.229000
11
65.782000
21
139.918000
0
LINE
8
Layer 1
10
65.782000
20
139.918000
11
66.068000
21
141.060000
0
LINE
8
Layer 1
10
66.068000
20
141.060000
11
66.241000
21
142.225000
0
LINE
8
Layer 1
10
66.241000
20
142.225000
11
66.262300
21
142.656000
0
LINE
8
Layer 1
10
96.158000
20
141.625000
11
96.331000
21
140.460000
0
LINE
8
Layer 1
10
96.331000
20
140.460000
11
96.617000
21
139.318000
0
LINE
8
Layer 1
10
96.617000
20
139.318000
11
97.013000
21
138.209000
0
LINE
8
Layer 1
10
97.013000
20
138.209000
11
97.517000
21
137.144000
0
LINE
8
Layer 1
10
97.517000
20
137.144000
11
98.122000
21
136.134000
0
LINE
8
Layer 1
10
98.122000
20
136.134000
11
98.304000
21
135.889000
0
LINE
8
Layer 1
10
98.304000
20
135.889000
11
98.824000
21
135.188000
0
LINE
8
Layer 1
10
98.824000
20
135.188000
11
99.480800
21
134.464000
0
LINE
8
Layer 1
10
99.480800
20
134.464000
11
99.615000
21
134.316000
0
LINE
8
Layer 1
10
99.615000
20
134.316000
11
100.487000
21
133.525000
0
LINE
8
Layer 1
10
100.487000
20
133.525000
11
101.433000
21
132.823000
0
LINE
8
Layer 1
10
101.433000
20
132.823000
11
102.443000
21
132.218000
0
LINE
8
Layer 1
10
102.443000
20
132.218000
11
103.508000
21
131.714000
0
LINE
8
Layer 1
10
103.508000
20
131.714000
11
104.617000
21
131.318000
0
LINE
8
Layer 1
10
104.617000
20
131.318000
11
105.759000
21
131.031000
0
LINE
8
Layer 1
10
105.759000
20
131.031000
11
106.496000
21
130.922000
0
LINE
8
Layer 1
10
106.496000
20
130.922000
11
106.924000
21
130.858000
0
LINE
8
Layer 1
10
106.924000
20
130.858000
11
108.100000
21
130.800000
0
LINE
8
Layer 1
10
108.100000
20
130.800000
11
109.276000
21
130.858000
0
LINE
8
Layer 1
10
109.276000
20
130.858000
11
110.441000
21
131.031000
0
LINE
8
Layer 1
10
110.441000
20
131.031000
11
111.583000
21
131.318000
0
LINE
8
Layer 1
10
111.583000
20
131.318000
11
112.692000
21
131.714000
0
LINE
8
Layer 1
10
112.692000
20
131.714000
11
113.757000
21
132.218000
0
LINE
8
Layer 1
10
113.757000
20
132.218000
11
114.688000
21
132.776000
0
LINE
8
Layer 1
10
114.688000
20
132.776000
11
114.767000
21
132.823000
0
LINE
8
Layer 1
10
114.767000
20
132.823000
11
115.713000
21
133.525000
0
LINE
8
Layer 1
10
115.713000
20
133.525000
11
116.585000
21
134.316000
0
LINE
8
Layer 1
10
116.585000
20
134.316000
11
116.719000
21
134.464000
0
LINE
8
Layer 1
10
116.719000
20
134.464000
11
117.376000
21
135.188000
0
LINE
8
Layer 1
10
117.376000
20
135.188000
11
118.078000
21
136.134000
0
LINE
8
Layer 1
10
118.078000
20
136.134000
11
118.683000
21
137.144000
0
LINE
8
Layer 1
10
118.683000
20
137.144000
11
119.187000
21
138.209000
0
LINE
8
Layer 1
10
119.187000
20
138.209000
11
119.583000
21
139.318000
0
LINE
8
Layer 1
10
119.583000
20
139.318000
11
119.869000
21
140.460000
0
LINE
8
Layer 1
10
119.869000
20
140.460000
11
120.042000
21
141.625000
0
LINE
8
Layer 1
10
120.042000
20
141.625000
11
120.093000
21
142.656000
0
LINE
8
Layer 1
10
120.093000
20
142.656000
11
120.100000
21
142.801000
0
LINE
8
Layer 1
10
120.100000
20
142.801000
11
120.042000
21
143.977000
0
LINE
8
Layer 1
10
120.042000
20
143.977000
11
119.869000
21
145.142000
0
LINE
8
Layer 1
10
119.869000
20
145.142000
11
119.583000
21
146.284000
0
LINE
8
Layer 1
10
119.583000
20
146.284000
11
119.187000
21
147.393000
0
LINE
8
Layer 1
10
119.187000
20
147.393000
11
118.683000
21
148.458000
0
LINE
8
Layer 1
10
118.683000
20
148.458000
11
118.078000
21
149.468000
0
LINE
8
Layer 1
10
118.078000
20
149.468000
11
117.376000
21
150.414000
0
LINE
8
Layer 1
10
117.376000
20
150.414000
11
116.982000
21
150.848000
0
LINE
8
Layer 1
10
116.982000
20
150.848000
11
116.585000
21
151.286000
0
LINE
8
Layer 1
10
116.585000
20
151.286000
11
115.713000
21
152.077000
0
LINE
8
Layer 1
10
115.713000
20
152.077000
11
114.767000
21
152.779000
0
LINE
8
Layer 1
10
114.767000
20
152.779000
11
114.688000
21
152.826000
0
LINE
8
Layer 1
10
114.688000
20
152.826000
11
113.757000
21
153.384000
0
LINE
8
Layer 1
10
113.757000
20
153.384000
11
112.692000
21
153.888000
0
LINE
8
Layer 1
10
112.692000
20
153.888000
11
111.583000
21
154.284000
0
LINE
8
Layer 1
10
111.583000
20
154.284000
11
110.441000
21
154.570000
0
LINE
8
Layer 1
10
110.441000
20
154.570000
11
109.276000
21
154.744000
0
LINE
8
Layer 1
10
109.276000
20
154.744000
11
108.100000
21
154.802000
0
LINE
8
Layer 1
10
108.100000
20
154.802000
11
106.924000
21
154.744000
0
LINE
8
Layer 1
10
106.924000
20
154.744000
11
106.496000
21
154.680000
0
LINE
8
Layer 1
10
106.496000
20
154.680000
11
105.759000
21
154.570000
0
LINE
8
Layer 1
10
105.759000
20
154.570000
11
104.617000
21
154.284000
0
LINE
8
Layer 1
10
104.617000
20
154.284000
11
103.508000
21
153.888000
0
LINE
8
Layer 1
10
103.508000
20
153.888000
11
102.443000
21
153.384000
0
LINE
8
Layer 1
10
102.443000
20
153.384000
11
101.433000
21
152.779000
0
LINE
8
Layer 1
10
101.433000
20
152.779000
11
100.487000
21
152.077000
0
LINE
8
Layer 1
10
100.487000
20
152.077000
11
99.615000
21
151.286000
0
LINE
8
Layer 1
10
99.615000
20
151.286000
11
99.217700
21
150.848000
0
LINE
8
Layer 1
10
99.217700
20
150.848000
11
98.824000
21
150.414000
0
LINE
8
Layer 1
10
98.824000
20
150.414000
11
98.304000
21
149.713000
0
LINE
8
Layer 1
10
98.304000
20
149.713000
11
98.122000
21
149.468000
0
LINE
8
Layer 1
10
98.122000
20
149.468000
11
97.517000
21
148.458000
0
LINE
8
Layer 1
10
97.517000
20
148.458000
11
97.013000
21
147.393000
0
LINE
8
Layer 1
10
97.013000
20
147.393000
11
96.617000
21
146.284000
0
LINE
8
Layer 1
10
96.617000
20
146.284000
11
96.331000
21
145.142000
0
LINE
8
Layer 1
10
96.331000
20
145.142000
11
96.158000
21
143.977000
0
LINE
8
Layer 1
10
96.158000
20
143.977000
11
96.100000
21
142.801000
0
LINE
8
Layer 1
10
96.100000
20
142.801000
11
96.107200
21
142.656000
0
LINE
8
Layer 1
10
96.107200
20
142.656000
11
96.158000
21
141.625000
0
LINE
8
Layer 1
10
12.829000
20
140.460000
11
13.115000
21
139.318000
0
LINE
8
Layer 1
10
13.115000
20
139.318000
11
13.511000
21
138.209000
0
LINE
8
Layer 1
10
13.511000
20
138.209000
11
14.015000
21
137.144000
0
LINE
8
Layer 1
10
14.015000
20
137.144000
11
14.620000
21
136.134000
0
LINE
8
Layer 1
10
14.620000
20
136.134000
11
15.322000
21
135.188000
0
LINE
8
Layer 1
10
15.322000
20
135.188000
11
15.978700
21
134.464000
0
LINE
8
Layer 1
10
15.978700
20
134.464000
11
16.113000
21
134.316000
0
LINE
8
Layer 1
10
16.113000
20
134.316000
11
16.384000
21
134.070000
0
LINE
8
Layer 1
10
16.384000
20
134.070000
11
16.985000
21
133.525000
0
LINE
8
Layer 1
10
16.985000
20
133.525000
11
17.931000
21
132.823000
0
LINE
8
Layer 1
10
17.931000
20
132.823000
11
18.941000
21
132.218000
0
LINE
8
Layer 1
10
18.941000
20
132.218000
11
20.006000
21
131.714000
0
LINE
8
Layer 1
10
20.006000
20
131.714000
11
21.115000
21
131.318000
0
LINE
8
Layer 1
10
21.115000
20
131.318000
11
22.257000
21
131.031000
0
LINE
8
Layer 1
10
22.257000
20
131.031000
11
23.422000
21
130.858000
0
LINE
8
Layer 1
10
23.422000
20
130.858000
11
24.576000
21
130.801000
0
LINE
8
Layer 1
10
24.576000
20
130.801000
11
24.598000
21
130.800000
0
LINE
8
Layer 1
10
24.598000
20
130.800000
11
25.774000
21
130.858000
0
LINE
8
Layer 1
10
25.774000
20
130.858000
11
26.939000
21
131.031000
0
LINE
8
Layer 1
10
26.939000
20
131.031000
11
28.081000
21
131.318000
0
LINE
8
Layer 1
10
28.081000
20
131.318000
11
29.190000
21
131.714000
0
LINE
8
Layer 1
10
29.190000
20
131.714000
11
30.255000
21
132.218000
0
LINE
8
Layer 1
10
30.255000
20
132.218000
11
31.265000
21
132.823000
0
LINE
8
Layer 1
10
31.265000
20
132.823000
11
32.211000
21
133.525000
0
LINE
8
Layer 1
10
32.211000
20
133.525000
11
32.768000
21
134.030000
0
LINE
8
Layer 1
10
32.768000
20
134.030000
11
33.083000
21
134.316000
0
LINE
8
Layer 1
10
33.083000
20
134.316000
11
33.217300
21
134.464000
0
LINE
8
Layer 1
10
33.217300
20
134.464000
11
33.874000
21
135.188000
0
LINE
8
Layer 1
10
33.874000
20
135.188000
11
34.576000
21
136.134000
0
LINE
8
Layer 1
10
34.576000
20
136.134000
11
35.181000
21
137.144000
0
LINE
8
Layer 1
10
35.181000
20
137.144000
11
35.685000
21
138.209000
0
LINE
8
Layer 1
10
35.685000
20
138.209000
11
36.081000
21
139.318000
0
LINE
8
Layer 1
10
36.081000
20
139.318000
11
36.367000
21
140.460000
0
LINE
8
Layer 1
10
36.367000
20
140.460000
11
36.540000
21
141.625000
0
LINE
8
Layer 1
10
36.540000
20
141.625000
11
36.590800
21
142.656000
0
LINE
8
Layer 1
10
36.590800
20
142.656000
11
36.598000
21
142.801000
0
LINE
8
Layer 1
10
36.598000
20
142.801000
11
36.540000
21
143.977000
0
LINE
8
Layer 1
10
36.540000
20
143.977000
11
36.367000
21
145.142000
0
LINE
8
Layer 1
10
36.367000
20
145.142000
11
36.081000
21
146.284000
0
LINE
8
Layer 1
10
36.081000
20
146.284000
11
35.685000
21
147.393000
0
LINE
8
Layer 1
10
35.685000
20
147.393000
11
35.181000
21
148.458000
0
LINE
8
Layer 1
10
35.181000
20
148.458000
11
34.576000
21
149.468000
0
LINE
8
Layer 1
10
34.576000
20
149.468000
11
33.874000
21
150.414000
0
LINE
8
Layer 1
10
33.874000
20
150.414000
11
33.480300
21
150.848000
0
LINE
8
Layer 1
10
33.480300
20
150.848000
11
33.083000
21
151.286000
0
LINE
8
Layer 1
10
33.083000
20
151.286000
11
32.768000
21
151.572000
0
LINE
8
Layer 1
10
32.768000
20
151.572000
11
32.211000
21
152.077000
0
LINE
8
Layer 1
10
32.211000
20
152.077000
11
31.265000
21
152.779000
0
LINE
8
Layer 1
10
31.265000
20
152.779000
11
30.255000
21
153.384000
0
LINE
8
Layer 1
10
30.255000
20
153.384000
11
29.190000
21
153.888000
0
LINE
8
Layer 1
10
29.190000
20
153.888000
11
28.081000
21
154.284000
0
LINE
8
Layer 1
10
28.081000
20
154.284000
11
26.939000
21
154.570000
0
LINE
8
Layer 1
10
26.939000
20
154.570000
11
25.774000
21
154.744000
0
LINE
8
Layer 1
10
25.774000
20
154.744000
11
24.598000
21
154.802000
0
LINE
8
Layer 1
10
24.598000
20
154.802000
11
24.576000
21
154.801000
0
LINE
8
Layer 1
10
24.576000
20
154.801000
11
23.422000
21
154.744000
0
LINE
8
Layer 1
10
23.422000
20
154.744000
11
22.257000
21
154.570000
0
LINE
8
Layer 1
10
22.257000
20
154.570000
11
21.115000
21
154.284000
0
LINE
8
Layer 1
10
21.115000
20
154.284000
11
20.006000
21
153.888000
0
LINE
8
Layer 1
10
20.006000
20
153.888000
11
18.941000
21
153.384000
0
LINE
8
Layer 1
10
18.941000
20
153.384000
11
17.931000
21
152.779000
0
LINE
8
Layer 1
10
17.931000
20
152.779000
11
16.985000
21
152.077000
0
LINE
8
Layer 1
10
16.985000
20
152.077000
11
16.384000
21
151.532000
0
LINE
8
Layer 1
10
16.384000
20
151.532000
11
16.113000
21
151.286000
0
LINE
8
Layer 1
10
16.113000
20
151.286000
11
15.715700
21
150.848000
0
LINE
8
Layer 1
10
15.715700
20
150.848000
11
15.322000
21
150.414000
0
LINE
8
Layer 1
10
15.322000
20
150.414000
11
14.620000
21
149.468000
0
LINE
8
Layer 1
10
14.620000
20
149.468000
11
14.015000
21
148.458000
0
LINE
8
Layer 1
10
14.015000
20
148.458000
11
13.511000
21
147.393000
0
LINE
8
Layer 1
10
13.511000
20
147.393000
11
13.115000
21
146.284000
0
LINE
8
Layer 1
10
13.115000
20
146.284000
11
12.829000
21
145.142000
0
LINE
8
Layer 1
10
12.829000
20
145.142000
11
12.656000
21
143.977000
0
LINE
8
Layer 1
10
12.656000
20
143.977000
11
12.598000
21
142.801000
0
LINE
8
Layer 1
10
12.598000
20
142.801000
11
12.605200
21
142.656000
0
LINE
8
Layer 1
10
12.605200
20
142.656000
11
12.656000
21
141.625000
0
LINE
8
Layer 1
10
12.656000
20
141.625000
11
12.829000
21
140.460000
0
LINE
8
Layer 1
10
253.952000
20
192.835000
11
253.923000
21
192.820000
0
LINE
8
Layer 1
10
253.923000
20
192.820000
11
253.480000
21
192.377000
0
LINE
8
Layer 1
10
253.480000
20
192.377000
11
253.196000
21
191.819000
0
LINE
8
Layer 1
10
253.196000
20
191.819000
11
253.194000
21
191.808000
0
LINE
8
Layer 1
10
253.194000
20
191.808000
11
253.098000
21
191.200000
0
LINE
8
Layer 1
10
253.098000
20
191.200000
11
253.196000
21
190.581000
0
LINE
8
Layer 1
10
253.196000
20
190.581000
11
253.480000
21
190.023000
0
LINE
8
Layer 1
10
253.480000
20
190.023000
11
253.923000
21
189.580000
0
LINE
8
Layer 1
10
253.923000
20
189.580000
11
253.952000
21
189.565000
0
LINE
8
Layer 1
10
253.952000
20
189.565000
11
254.481000
21
189.296000
0
LINE
8
Layer 1
10
254.481000
20
189.296000
11
255.100000
21
189.197000
0
LINE
8
Layer 1
10
255.100000
20
189.197000
11
255.719000
21
189.296000
0
LINE
8
Layer 1
10
255.719000
20
189.296000
11
256.277000
21
189.580000
0
LINE
8
Layer 1
10
256.277000
20
189.580000
11
256.720000
21
190.023000
0
LINE
8
Layer 1
10
256.720000
20
190.023000
11
257.004000
21
190.581000
0
LINE
8
Layer 1
10
257.004000
20
190.581000
11
257.103000
21
191.200000
0
LINE
8
Layer 1
10
257.103000
20
191.200000
11
257.006000
21
191.808000
0
LINE
8
Layer 1
10
257.006000
20
191.808000
11
257.004000
21
191.819000
0
LINE
8
Layer 1
10
257.004000
20
191.819000
11
256.720000
21
192.377000
0
LINE
8
Layer 1
10
256.720000
20
192.377000
11
256.277000
21
192.820000
0
LINE
8
Layer 1
10
256.277000
20
192.820000
11
255.719000
21
193.104000
0
LINE
8
Layer 1
10
255.719000
20
193.104000
11
255.100000
21
193.202000
0
LINE
8
Layer 1
10
255.100000
20
193.202000
11
254.481000
21
193.104000
0
LINE
8
Layer 1
10
254.481000
20
193.104000
11
253.952000
21
192.835000
0
LINE
8
Layer 1
10
106.496000
20
192.601000
11
106.277000
21
192.820000
0
LINE
8
Layer 1
10
106.277000
20
192.820000
11
105.719000
21
193.104000
0
LINE
8
Layer 1
10
105.719000
20
193.104000
11
105.100000
21
193.202000
0
LINE
8
Layer 1
10
105.100000
20
193.202000
11
104.481000
21
193.104000
0
LINE
8
Layer 1
10
104.481000
20
193.104000
11
103.923000
21
192.820000
0
LINE
8
Layer 1
10
103.923000
20
192.820000
11
103.480000
21
192.377000
0
LINE
8
Layer 1
10
103.480000
20
192.377000
11
103.196000
21
191.819000
0
LINE
8
Layer 1
10
103.196000
20
191.819000
11
103.194000
21
191.808000
0
LINE
8
Layer 1
10
103.194000
20
191.808000
11
103.098000
21
191.200000
0
LINE
8
Layer 1
10
103.098000
20
191.200000
11
103.196000
21
190.581000
0
LINE
8
Layer 1
10
103.196000
20
190.581000
11
103.480000
21
190.023000
0
LINE
8
Layer 1
10
103.480000
20
190.023000
11
103.923000
21
189.580000
0
LINE
8
Layer 1
10
103.923000
20
189.580000
11
104.481000
21
189.296000
0
LINE
8
Layer 1
10
104.481000
20
189.296000
11
105.100000
21
189.197000
0
LINE
8
Layer 1
10
105.100000
20
189.197000
11
105.719000
21
189.296000
0
LINE
8
Layer 1
10
105.719000
20
189.296000
11
106.277000
21
189.580000
0
LINE
8
Layer 1
10
106.277000
20
189.580000
11
106.720000
21
190.023000
0
LINE
8
Layer 1
10
106.720000
20
190.023000
11
107.004000
21
190.581000
0
LINE
8
Layer 1
10
107.004000
20
190.581000
11
107.103000
21
191.200000
0
LINE
8
Layer 1
10
107.103000
20
191.200000
11
107.006000
21
191.808000
0
LINE
8
Layer 1
10
107.006000
20
191.808000
11
107.004000
21
191.819000
0
LINE
8
Layer 1
10
107.004000
20
191.819000
11
106.720000
21
192.377000
0
LINE
8
Layer 1
10
106.720000
20
192.377000
11
106.496000
21
192.601000
0
LINE
8
Layer 1
10
73.728000
20
192.625000
11
73.480000
21
192.377000
0
LINE
8
Layer 1
10
73.480000
20
192.377000
11
73.196000
21
191.819000
0
LINE
8
Layer 1
10
73.196000
20
191.819000
11
73.194300
21
191.808000
0
LINE
8
Layer 1
10
73.194300
20
191.808000
11
73.098000
21
191.200000
0
LINE
8
Layer 1
10
73.098000
20
191.200000
11
73.196000
21
190.581000
0
LINE
8
Layer 1
10
73.196000
20
190.581000
11
73.480000
21
190.023000
0
LINE
8
Layer 1
10
73.480000
20
190.023000
11
73.923000
21
189.580000
0
LINE
8
Layer 1
10
73.923000
20
189.580000
11
74.481000
21
189.296000
0
LINE
8
Layer 1
10
74.481000
20
189.296000
11
75.100000
21
189.197000
0
LINE
8
Layer 1
10
75.100000
20
189.197000
11
75.719000
21
189.296000
0
LINE
8
Layer 1
10
75.719000
20
189.296000
11
76.277000
21
189.580000
0
LINE
8
Layer 1
10
76.277000
20
189.580000
11
76.720000
21
190.023000
0
LINE
8
Layer 1
10
76.720000
20
190.023000
11
77.004000
21
190.581000
0
LINE
8
Layer 1
10
77.004000
20
190.581000
11
77.103000
21
191.200000
0
LINE
8
Layer 1
10
77.103000
20
191.200000
11
77.005800
21
191.808000
0
LINE
8
Layer 1
10
77.005800
20
191.808000
11
77.004000
21
191.819000
0
LINE
8
Layer 1
10
77.004000
20
191.819000
11
76.720000
21
192.377000
0
LINE
8
Layer 1
10
76.720000
20
192.377000
11
76.277000
21
192.820000
0
LINE
8
Layer 1
10
76.277000
20
192.820000
11
75.719000
21
193.104000
0
LINE
8
Layer 1
10
75.719000
20
193.104000
11
75.100000
21
193.202000
0
LINE
8
Layer 1
10
75.100000
20
193.202000
11
74.481000
21
193.104000
0
LINE
8
Layer 1
10
74.481000
20
193.104000
11
73.923000
21
192.820000
0
LINE
8
Layer 1
10
73.923000
20
192.820000
11
73.728000
21
192.625000
0
LINE
8
Layer 1
10
-73.728000
20
192.823000
11
-74.281000
21
193.104000
0
LINE
8
Layer 1
10
-74.281000
20
193.104000
11
-74.900000
21
193.202000
0
LINE
8
Layer 1
10
-74.900000
20
193.202000
11
-75.519000
21
193.104000
0
LINE
8
Layer 1
10
-75.519000
20
193.104000
11
-76.077000
21
192.820000
0
LINE
8
Layer 1
10
-76.077000
20
192.820000
11
-76.520000
21
192.377000
0
LINE
8
Layer 1
10
-76.520000
20
192.377000
11
-76.804000
21
191.819000
0
LINE
8
Layer 1
10
-76.804000
20
191.819000
11
-76.805800
21
191.808000
0
LINE
8
Layer 1
10
-76.805800
20
191.808000
11
-76.903000
21
191.200000
0
LINE
8
Layer 1
10
-76.903000
20
191.200000
11
-76.804000
21
190.581000
0
LINE
8
Layer 1
10
-76.804000
20
190.581000
11
-76.520000
21
190.023000
0
LINE
8
Layer 1
10
-76.520000
20
190.023000
11
-76.077000
21
189.580000
0
LINE
8
Layer 1
10
-76.077000
20
189.580000
11
-75.519000
21
189.296000
0
LINE
8
Layer 1
10
-75.519000
20
189.296000
11
-74.900000
21
189.197000
0
LINE
8
Layer 1
10
-74.900000
20
189.197000
11
-74.281000
21
189.296000
0
LINE
8
Layer 1
10
-74.281000
20
189.296000
11
-73.728000
21
189.577000
0
LINE
8
Layer 1
10
-73.728000
20
189.577000
11
-73.723000
21
189.580000
0
LINE
8
Layer 1
10
-73.723000
20
189.580000
11
-73.280000
21
190.023000
0
LINE
8
Layer 1
10
-73.280000
20
190.023000
11
-72.996000
21
190.581000
0
LINE
8
Layer 1
10
-72.996000
20
190.581000
11
-72.898000
21
191.200000
0
LINE
8
Layer 1
10
-72.898000
20
191.200000
11
-72.994300
21
191.808000
0
LINE
8
Layer 1
10
-72.994300
20
191.808000
11
-72.996000
21
191.819000
0
LINE
8
Layer 1
10
-72.996000
20
191.819000
11
-73.280000
21
192.377000
0
LINE
8
Layer 1
10
-73.280000
20
192.377000
11
-73.723000
21
192.820000
0
LINE
8
Layer 1
10
-73.723000
20
192.820000
11
-73.728000
21
192.823000
0
LINE
8
Layer 1
10
-73.728000
20
12.822500
11
-74.281000
21
13.104000
0
LINE
8
Layer 1
10
-74.281000
20
13.104000
11
-74.900000
21
13.202000
0
LINE
8
Layer 1
10
-74.900000
20
13.202000
11
-75.519000
21
13.104000
0
LINE
8
Layer 1
10
-75.519000
20
13.104000
11
-76.077000
21
12.820000
0
LINE
8
Layer 1
10
-76.077000
20
12.820000
11
-76.520000
21
12.377000
0
LINE
8
Layer 1
10
-76.520000
20
12.377000
11
-76.804000
21
11.819000
0
LINE
8
Layer 1
10
-76.804000
20
11.819000
11
-76.841600
21
11.584000
0
LINE
8
Layer 1
10
-76.841600
20
11.584000
11
-76.903000
21
11.200000
0
LINE
8
Layer 1
10
-76.903000
20
11.200000
11
-76.804000
21
10.581000
0
LINE
8
Layer 1
10
-76.804000
20
10.581000
11
-76.520000
21
10.023000
0
LINE
8
Layer 1
10
-76.520000
20
10.023000
11
-76.077000
21
9.580000
0
LINE
8
Layer 1
10
-76.077000
20
9.580000
11
-75.519000
21
9.295000
0
LINE
8
Layer 1
10
-75.519000
20
9.295000
11
-74.900000
21
9.197010
0
LINE
8
Layer 1
10
-74.900000
20
9.197010
11
-74.281000
21
9.295000
0
LINE
8
Layer 1
10
-74.281000
20
9.295000
11
-73.728000
21
9.577450
0
LINE
8
Layer 1
10
-73.728000
20
9.577450
11
-73.723000
21
9.580000
0
LINE
8
Layer 1
10
-73.723000
20
9.580000
11
-73.280000
21
10.023000
0
LINE
8
Layer 1
10
-73.280000
20
10.023000
11
-72.996000
21
10.581000
0
LINE
8
Layer 1
10
-72.996000
20
10.581000
11
-72.898000
21
11.200000
0
LINE
8
Layer 1
10
-72.898000
20
11.200000
11
-72.958800
21
11.584000
0
LINE
8
Layer 1
10
-72.958800
20
11.584000
11
-72.996000
21
11.819000
0
LINE
8
Layer 1
10
-72.996000
20
11.819000
11
-73.280000
21
12.377000
0
LINE
8
Layer 1
10
-73.280000
20
12.377000
11
-73.723000
21
12.820000
0
LINE
8
Layer 1
10
-73.723000
20
12.820000
11
-73.728000
21
12.822500
0
LINE
8
Layer 1
10
-73.728000
20
12.822500
11
-73.728000
21
12.822500
 0 
ENDSEC
 0 
EOF